<svg width="1363" height="163" viewBox="0 0 1363 163" fill="none" xmlns="http://www.w3.org/2000/svg">
<path d="M0 15C0 6.71573 6.71573 0 15 0H37V163H15C6.71573 163 0 156.284 0 148V15Z" fill="#424242"/>
<rect width="1097" height="163" transform="translate(37)" fill="#F0F0F0"/>
<path d="M101.906 53.9219L94.3945 51.2383V48.0859L104.602 52.375V54.6367L101.906 53.9219ZM94.3945 56.1719L101.918 53.4297L104.602 52.7852V55.0352L94.3945 59.3242V56.1719ZM119.543 54.918H115.195V52.1758H119.543C120.215 52.1758 120.762 52.0664 121.184 51.8477C121.605 51.6211 121.914 51.3086 122.109 50.9102C122.305 50.5117 122.402 50.0625 122.402 49.5625C122.402 49.0547 122.305 48.582 122.109 48.1445C121.914 47.707 121.605 47.3555 121.184 47.0898C120.762 46.8242 120.215 46.6914 119.543 46.6914H116.414V61H112.898V43.9375H119.543C120.879 43.9375 122.023 44.1797 122.977 44.6641C123.938 45.1406 124.672 45.8008 125.18 46.6445C125.688 47.4883 125.941 48.4531 125.941 49.5391C125.941 50.6406 125.688 51.5938 125.18 52.3984C124.672 53.2031 123.938 53.8242 122.977 54.2617C122.023 54.6992 120.879 54.918 119.543 54.918ZM133.828 61.2344C132.844 61.2344 131.961 61.0781 131.18 60.7656C130.398 60.4453 129.734 60.0039 129.188 59.4414C128.648 58.8789 128.234 58.2266 127.945 57.4844C127.656 56.7344 127.512 55.9375 127.512 55.0938V54.625C127.512 53.6641 127.648 52.7852 127.922 51.9883C128.195 51.1914 128.586 50.5 129.094 49.9141C129.609 49.3281 130.234 48.8789 130.969 48.5664C131.703 48.2461 132.531 48.0859 133.453 48.0859C134.352 48.0859 135.148 48.2344 135.844 48.5312C136.539 48.8281 137.121 49.25 137.59 49.7969C138.066 50.3438 138.426 51 138.668 51.7656C138.91 52.5234 139.031 53.3672 139.031 54.2969V55.7031H128.953V53.4531H135.715V53.1953C135.715 52.7266 135.629 52.3086 135.457 51.9414C135.293 51.5664 135.043 51.2695 134.707 51.0508C134.371 50.832 133.941 50.7227 133.418 50.7227C132.973 50.7227 132.59 50.8203 132.27 51.0156C131.949 51.2109 131.688 51.4844 131.484 51.8359C131.289 52.1875 131.141 52.6016 131.039 53.0781C130.945 53.5469 130.898 54.0625 130.898 54.625V55.0938C130.898 55.6016 130.969 56.0703 131.109 56.5C131.258 56.9297 131.465 57.3008 131.73 57.6133C132.004 57.9258 132.332 58.168 132.715 58.3398C133.105 58.5117 133.547 58.5977 134.039 58.5977C134.648 58.5977 135.215 58.4805 135.738 58.2461C136.27 58.0039 136.727 57.6406 137.109 57.1562L138.75 58.9375C138.484 59.3203 138.121 59.6875 137.66 60.0391C137.207 60.3906 136.66 60.6797 136.02 60.9062C135.379 61.125 134.648 61.2344 133.828 61.2344ZM147.797 58.1406V52.4922C147.797 52.0859 147.73 51.7383 147.598 51.4492C147.465 51.1523 147.258 50.9219 146.977 50.7578C146.703 50.5938 146.348 50.5117 145.91 50.5117C145.535 50.5117 145.211 50.5781 144.938 50.7109C144.664 50.8359 144.453 51.0195 144.305 51.2617C144.156 51.4961 144.082 51.7734 144.082 52.0938H140.707C140.707 51.5547 140.832 51.043 141.082 50.5586C141.332 50.0742 141.695 49.6484 142.172 49.2812C142.648 48.9062 143.215 48.6133 143.871 48.4023C144.535 48.1914 145.277 48.0859 146.098 48.0859C147.082 48.0859 147.957 48.25 148.723 48.5781C149.488 48.9062 150.09 49.3984 150.527 50.0547C150.973 50.7109 151.195 51.5312 151.195 52.5156V57.9414C151.195 58.6367 151.238 59.207 151.324 59.6523C151.41 60.0898 151.535 60.4727 151.699 60.8008V61H148.289C148.125 60.6562 148 60.2266 147.914 59.7109C147.836 59.1875 147.797 58.6641 147.797 58.1406ZM148.242 53.2773L148.266 55.1875H146.379C145.934 55.1875 145.547 55.2383 145.219 55.3398C144.891 55.4414 144.621 55.5859 144.41 55.7734C144.199 55.9531 144.043 56.1641 143.941 56.4062C143.848 56.6484 143.801 56.9141 143.801 57.2031C143.801 57.4922 143.867 57.7539 144 57.9883C144.133 58.2148 144.324 58.3945 144.574 58.5273C144.824 58.6523 145.117 58.7148 145.453 58.7148C145.961 58.7148 146.402 58.6133 146.777 58.4102C147.152 58.207 147.441 57.957 147.645 57.6602C147.855 57.3633 147.965 57.082 147.973 56.8164L148.863 58.2461C148.738 58.5664 148.566 58.8984 148.348 59.2422C148.137 59.5859 147.867 59.9102 147.539 60.2148C147.211 60.5117 146.816 60.7578 146.355 60.9531C145.895 61.1406 145.348 61.2344 144.715 61.2344C143.91 61.2344 143.18 61.0742 142.523 60.7539C141.875 60.4258 141.359 59.9766 140.977 59.4062C140.602 58.8281 140.414 58.1719 140.414 57.4375C140.414 56.7734 140.539 56.1836 140.789 55.668C141.039 55.1523 141.406 54.7188 141.891 54.3672C142.383 54.0078 142.996 53.7383 143.73 53.5586C144.465 53.3711 145.316 53.2773 146.285 53.2773H148.242ZM159.035 58.5977C159.449 58.5977 159.816 58.5195 160.137 58.3633C160.457 58.1992 160.707 57.9727 160.887 57.6836C161.074 57.3867 161.172 57.0391 161.18 56.6406H164.355C164.348 57.5312 164.109 58.3242 163.641 59.0195C163.172 59.707 162.543 60.25 161.754 60.6484C160.965 61.0391 160.082 61.2344 159.105 61.2344C158.121 61.2344 157.262 61.0703 156.527 60.7422C155.801 60.4141 155.195 59.9609 154.711 59.3828C154.227 58.7969 153.863 58.1172 153.621 57.3438C153.379 56.5625 153.258 55.7266 153.258 54.8359V54.4961C153.258 53.5977 153.379 52.7617 153.621 51.9883C153.863 51.207 154.227 50.5273 154.711 49.9492C155.195 49.3633 155.801 48.9062 156.527 48.5781C157.254 48.25 158.105 48.0859 159.082 48.0859C160.121 48.0859 161.031 48.2852 161.812 48.6836C162.602 49.082 163.219 49.6523 163.664 50.3945C164.117 51.1289 164.348 52 164.355 53.0078H161.18C161.172 52.5859 161.082 52.2031 160.91 51.8594C160.746 51.5156 160.504 51.2422 160.184 51.0391C159.871 50.8281 159.484 50.7227 159.023 50.7227C158.531 50.7227 158.129 50.8281 157.816 51.0391C157.504 51.2422 157.262 51.5234 157.09 51.8828C156.918 52.2344 156.797 52.6367 156.727 53.0898C156.664 53.5352 156.633 54.0039 156.633 54.4961V54.8359C156.633 55.3281 156.664 55.8008 156.727 56.2539C156.789 56.707 156.906 57.1094 157.078 57.4609C157.258 57.8125 157.504 58.0898 157.816 58.293C158.129 58.4961 158.535 58.5977 159.035 58.5977ZM172.148 61.2344C171.164 61.2344 170.281 61.0781 169.5 60.7656C168.719 60.4453 168.055 60.0039 167.508 59.4414C166.969 58.8789 166.555 58.2266 166.266 57.4844C165.977 56.7344 165.832 55.9375 165.832 55.0938V54.625C165.832 53.6641 165.969 52.7852 166.242 51.9883C166.516 51.1914 166.906 50.5 167.414 49.9141C167.93 49.3281 168.555 48.8789 169.289 48.5664C170.023 48.2461 170.852 48.0859 171.773 48.0859C172.672 48.0859 173.469 48.2344 174.164 48.5312C174.859 48.8281 175.441 49.25 175.91 49.7969C176.387 50.3438 176.746 51 176.988 51.7656C177.23 52.5234 177.352 53.3672 177.352 54.2969V55.7031H167.273V53.4531H174.035V53.1953C174.035 52.7266 173.949 52.3086 173.777 51.9414C173.613 51.5664 173.363 51.2695 173.027 51.0508C172.691 50.832 172.262 50.7227 171.738 50.7227C171.293 50.7227 170.91 50.8203 170.59 51.0156C170.27 51.2109 170.008 51.4844 169.805 51.8359C169.609 52.1875 169.461 52.6016 169.359 53.0781C169.266 53.5469 169.219 54.0625 169.219 54.625V55.0938C169.219 55.6016 169.289 56.0703 169.43 56.5C169.578 56.9297 169.785 57.3008 170.051 57.6133C170.324 57.9258 170.652 58.168 171.035 58.3398C171.426 58.5117 171.867 58.5977 172.359 58.5977C172.969 58.5977 173.535 58.4805 174.059 58.2461C174.59 58.0039 175.047 57.6406 175.43 57.1562L177.07 58.9375C176.805 59.3203 176.441 59.6875 175.98 60.0391C175.527 60.3906 174.98 60.6797 174.34 60.9062C173.699 61.125 172.969 61.2344 172.148 61.2344ZM192.105 54.918H187.758V52.1758H192.105C192.777 52.1758 193.324 52.0664 193.746 51.8477C194.168 51.6211 194.477 51.3086 194.672 50.9102C194.867 50.5117 194.965 50.0625 194.965 49.5625C194.965 49.0547 194.867 48.582 194.672 48.1445C194.477 47.707 194.168 47.3555 193.746 47.0898C193.324 46.8242 192.777 46.6914 192.105 46.6914H188.977V61H185.461V43.9375H192.105C193.441 43.9375 194.586 44.1797 195.539 44.6641C196.5 45.1406 197.234 45.8008 197.742 46.6445C198.25 47.4883 198.504 48.4531 198.504 49.5391C198.504 50.6406 198.25 51.5938 197.742 52.3984C197.234 53.2031 196.5 53.8242 195.539 54.2617C194.586 54.6992 193.441 54.918 192.105 54.918ZM208.219 57.9648V48.3203H211.594V61H208.418L208.219 57.9648ZM208.594 55.3633L209.59 55.3398C209.59 56.1836 209.492 56.9688 209.297 57.6953C209.102 58.4141 208.809 59.0391 208.418 59.5703C208.027 60.0938 207.535 60.5039 206.941 60.8008C206.348 61.0898 205.648 61.2344 204.844 61.2344C204.227 61.2344 203.656 61.1484 203.133 60.9766C202.617 60.7969 202.172 60.5195 201.797 60.1445C201.43 59.7617 201.141 59.2734 200.93 58.6797C200.727 58.0781 200.625 57.3555 200.625 56.5117V48.3203H204V56.5352C204 56.9102 204.043 57.2266 204.129 57.4844C204.223 57.7422 204.352 57.9531 204.516 58.1172C204.68 58.2812 204.871 58.3984 205.09 58.4688C205.316 58.5391 205.566 58.5742 205.84 58.5742C206.535 58.5742 207.082 58.4336 207.48 58.1523C207.887 57.8711 208.172 57.4883 208.336 57.0039C208.508 56.5117 208.594 55.9648 208.594 55.3633ZM217.734 43V61H214.348V43H217.734ZM225.762 58.5977C226.176 58.5977 226.543 58.5195 226.863 58.3633C227.184 58.1992 227.434 57.9727 227.613 57.6836C227.801 57.3867 227.898 57.0391 227.906 56.6406H231.082C231.074 57.5312 230.836 58.3242 230.367 59.0195C229.898 59.707 229.27 60.25 228.48 60.6484C227.691 61.0391 226.809 61.2344 225.832 61.2344C224.848 61.2344 223.988 61.0703 223.254 60.7422C222.527 60.4141 221.922 59.9609 221.438 59.3828C220.953 58.7969 220.59 58.1172 220.348 57.3438C220.105 56.5625 219.984 55.7266 219.984 54.8359V54.4961C219.984 53.5977 220.105 52.7617 220.348 51.9883C220.59 51.207 220.953 50.5273 221.438 49.9492C221.922 49.3633 222.527 48.9062 223.254 48.5781C223.98 48.25 224.832 48.0859 225.809 48.0859C226.848 48.0859 227.758 48.2852 228.539 48.6836C229.328 49.082 229.945 49.6523 230.391 50.3945C230.844 51.1289 231.074 52 231.082 53.0078H227.906C227.898 52.5859 227.809 52.2031 227.637 51.8594C227.473 51.5156 227.23 51.2422 226.91 51.0391C226.598 50.8281 226.211 50.7227 225.75 50.7227C225.258 50.7227 224.855 50.8281 224.543 51.0391C224.23 51.2422 223.988 51.5234 223.816 51.8828C223.645 52.2344 223.523 52.6367 223.453 53.0898C223.391 53.5352 223.359 54.0039 223.359 54.4961V54.8359C223.359 55.3281 223.391 55.8008 223.453 56.2539C223.516 56.707 223.633 57.1094 223.805 57.4609C223.984 57.8125 224.23 58.0898 224.543 58.293C224.855 58.4961 225.262 58.5977 225.762 58.5977ZM238.875 61.2344C237.891 61.2344 237.008 61.0781 236.227 60.7656C235.445 60.4453 234.781 60.0039 234.234 59.4414C233.695 58.8789 233.281 58.2266 232.992 57.4844C232.703 56.7344 232.559 55.9375 232.559 55.0938V54.625C232.559 53.6641 232.695 52.7852 232.969 51.9883C233.242 51.1914 233.633 50.5 234.141 49.9141C234.656 49.3281 235.281 48.8789 236.016 48.5664C236.75 48.2461 237.578 48.0859 238.5 48.0859C239.398 48.0859 240.195 48.2344 240.891 48.5312C241.586 48.8281 242.168 49.25 242.637 49.7969C243.113 50.3438 243.473 51 243.715 51.7656C243.957 52.5234 244.078 53.3672 244.078 54.2969V55.7031H234V53.4531H240.762V53.1953C240.762 52.7266 240.676 52.3086 240.504 51.9414C240.34 51.5664 240.09 51.2695 239.754 51.0508C239.418 50.832 238.988 50.7227 238.465 50.7227C238.02 50.7227 237.637 50.8203 237.316 51.0156C236.996 51.2109 236.734 51.4844 236.531 51.8359C236.336 52.1875 236.188 52.6016 236.086 53.0781C235.992 53.5469 235.945 54.0625 235.945 54.625V55.0938C235.945 55.6016 236.016 56.0703 236.156 56.5C236.305 56.9297 236.512 57.3008 236.777 57.6133C237.051 57.9258 237.379 58.168 237.762 58.3398C238.152 58.5117 238.594 58.5977 239.086 58.5977C239.695 58.5977 240.262 58.4805 240.785 58.2461C241.316 58.0039 241.773 57.6406 242.156 57.1562L243.797 58.9375C243.531 59.3203 243.168 59.6875 242.707 60.0391C242.254 60.3906 241.707 60.6797 241.066 60.9062C240.426 61.125 239.695 61.2344 238.875 61.2344Z" fill="#888888"/>
<path d="M110.062 92.0469L101.742 119H92.9062L105.445 84.875H111.047L110.062 92.0469ZM116.953 119L108.609 92.0469L107.531 84.875H113.203L125.812 119H116.953ZM116.625 106.273V112.625H99.1172V106.273H116.625ZM135.258 115.906L142.055 84.875H146.109L148.312 87.5234L141.07 119H136.594L135.258 115.906ZM133.453 84.875L139.195 116.141L137.719 119H132.539L125.297 84.875H133.453ZM152.039 115.977L157.734 84.875H165.867L158.625 119H153.469L152.039 115.977ZM149.039 84.875L156 116.094L154.594 119H150.117L142.711 87.4766L145.008 84.875H149.039ZM186.68 109.93C186.68 109.398 186.602 108.922 186.445 108.5C186.289 108.062 186 107.656 185.578 107.281C185.156 106.906 184.547 106.531 183.75 106.156C182.969 105.766 181.938 105.359 180.656 104.938C179.156 104.438 177.711 103.875 176.32 103.25C174.93 102.609 173.688 101.867 172.594 101.023C171.5 100.164 170.633 99.1641 169.992 98.0234C169.352 96.8672 169.031 95.5234 169.031 93.9922C169.031 92.5234 169.359 91.2031 170.016 90.0312C170.672 88.8438 171.586 87.8359 172.758 87.0078C173.945 86.1641 175.336 85.5234 176.93 85.0859C178.523 84.6328 180.266 84.4062 182.156 84.4062C184.656 84.4062 186.859 84.8438 188.766 85.7188C190.688 86.5781 192.188 87.8047 193.266 89.3984C194.359 90.9766 194.906 92.8438 194.906 95H186.727C186.727 94.1406 186.547 93.3828 186.188 92.7266C185.844 92.0703 185.32 91.5547 184.617 91.1797C183.914 90.8047 183.031 90.6172 181.969 90.6172C180.938 90.6172 180.07 90.7734 179.367 91.0859C178.664 91.3984 178.133 91.8203 177.773 92.3516C177.414 92.8672 177.234 93.4375 177.234 94.0625C177.234 94.5781 177.375 95.0469 177.656 95.4688C177.953 95.875 178.367 96.2578 178.898 96.6172C179.445 96.9766 180.102 97.3203 180.867 97.6484C181.648 97.9766 182.523 98.2969 183.492 98.6094C185.305 99.1875 186.914 99.8359 188.32 100.555C189.742 101.258 190.938 102.062 191.906 102.969C192.891 103.859 193.633 104.875 194.133 106.016C194.648 107.156 194.906 108.445 194.906 109.883C194.906 111.414 194.609 112.773 194.016 113.961C193.422 115.148 192.57 116.156 191.461 116.984C190.352 117.797 189.023 118.414 187.477 118.836C185.93 119.258 184.203 119.469 182.297 119.469C180.547 119.469 178.82 119.25 177.117 118.812C175.43 118.359 173.898 117.672 172.523 116.75C171.148 115.812 170.047 114.617 169.219 113.164C168.406 111.695 168 109.953 168 107.938H176.25C176.25 108.938 176.383 109.781 176.648 110.469C176.914 111.156 177.305 111.711 177.82 112.133C178.336 112.539 178.969 112.836 179.719 113.023C180.469 113.195 181.328 113.281 182.297 113.281C183.344 113.281 184.188 113.133 184.828 112.836C185.469 112.523 185.938 112.117 186.234 111.617C186.531 111.102 186.68 110.539 186.68 109.93ZM222.188 119H214.617L214.664 112.672H222.188C223.75 112.672 225.07 112.297 226.148 111.547C227.242 110.797 228.07 109.68 228.633 108.195C229.211 106.695 229.5 104.852 229.5 102.664V101.188C229.5 99.5469 229.336 98.1094 229.008 96.875C228.695 95.625 228.227 94.5859 227.602 93.7578C226.977 92.9141 226.195 92.2812 225.258 91.8594C224.336 91.4375 223.273 91.2266 222.07 91.2266H214.477V84.875H222.07C224.383 84.875 226.5 85.2734 228.422 86.0703C230.359 86.8516 232.031 87.9766 233.438 89.4453C234.859 90.8984 235.953 92.625 236.719 94.625C237.5 96.6094 237.891 98.8125 237.891 101.234V102.664C237.891 105.07 237.5 107.273 236.719 109.273C235.953 111.273 234.867 113 233.461 114.453C232.055 115.906 230.391 117.031 228.469 117.828C226.562 118.609 224.469 119 222.188 119ZM219.328 84.875V119H211.102V84.875H219.328ZM254.086 119.469C252.023 119.469 250.18 119.148 248.555 118.508C246.93 117.852 245.555 116.953 244.43 115.812C243.32 114.672 242.469 113.359 241.875 111.875C241.297 110.391 241.008 108.82 241.008 107.164V106.273C241.008 104.414 241.266 102.695 241.781 101.117C242.297 99.5234 243.062 98.1328 244.078 96.9453C245.094 95.7578 246.367 94.8359 247.898 94.1797C249.43 93.5078 251.211 93.1719 253.242 93.1719C255.039 93.1719 256.648 93.4609 258.07 94.0391C259.492 94.6172 260.695 95.4453 261.68 96.5234C262.68 97.6016 263.438 98.9062 263.953 100.438C264.484 101.969 264.75 103.688 264.75 105.594V108.805H244.031V103.859H257.039V103.25C257.055 102.406 256.906 101.688 256.594 101.094C256.297 100.5 255.859 100.047 255.281 99.7344C254.703 99.4219 254 99.2656 253.172 99.2656C252.312 99.2656 251.602 99.4531 251.039 99.8281C250.492 100.203 250.062 100.719 249.75 101.375C249.453 102.016 249.242 102.758 249.117 103.602C248.992 104.445 248.93 105.336 248.93 106.273V107.164C248.93 108.102 249.055 108.953 249.305 109.719C249.57 110.484 249.945 111.141 250.43 111.688C250.93 112.219 251.523 112.633 252.211 112.93C252.914 113.227 253.711 113.375 254.602 113.375C255.68 113.375 256.742 113.172 257.789 112.766C258.836 112.359 259.734 111.688 260.484 110.75L264.07 115.016C263.555 115.75 262.82 116.461 261.867 117.148C260.93 117.836 259.805 118.398 258.492 118.836C257.18 119.258 255.711 119.469 254.086 119.469ZM275.93 98.5156V128.75H268.031V93.6406H275.391L275.93 98.5156ZM291.492 106.016V106.508C291.492 108.352 291.281 110.062 290.859 111.641C290.438 113.219 289.812 114.594 288.984 115.766C288.156 116.938 287.125 117.852 285.891 118.508C284.672 119.148 283.258 119.469 281.648 119.469C280.133 119.469 278.828 119.133 277.734 118.461C276.641 117.789 275.727 116.859 274.992 115.672C274.258 114.484 273.664 113.125 273.211 111.594C272.758 110.062 272.398 108.445 272.133 106.742V106.109C272.398 104.281 272.758 102.586 273.211 101.023C273.664 99.4453 274.258 98.0703 274.992 96.8984C275.727 95.7266 276.633 94.8125 277.711 94.1562C278.805 93.5 280.109 93.1719 281.625 93.1719C283.234 93.1719 284.648 93.4766 285.867 94.0859C287.102 94.6953 288.133 95.5703 288.961 96.7109C289.805 97.8359 290.438 99.1875 290.859 100.766C291.281 102.344 291.492 104.094 291.492 106.016ZM283.594 106.508V106.016C283.594 105.031 283.523 104.133 283.383 103.32C283.242 102.492 283.016 101.773 282.703 101.164C282.406 100.555 282.008 100.086 281.508 99.7578C281.008 99.4297 280.391 99.2656 279.656 99.2656C278.812 99.2656 278.102 99.3984 277.523 99.6641C276.961 99.9141 276.508 100.305 276.164 100.836C275.836 101.352 275.602 102 275.461 102.781C275.336 103.547 275.281 104.445 275.297 105.477V107.398C275.266 108.586 275.383 109.633 275.648 110.539C275.914 111.43 276.375 112.125 277.031 112.625C277.688 113.125 278.578 113.375 279.703 113.375C280.453 113.375 281.078 113.203 281.578 112.859C282.078 112.5 282.477 112.008 282.773 111.383C283.07 110.742 283.281 110.008 283.406 109.18C283.531 108.352 283.594 107.461 283.594 106.508ZM303.352 83V119H295.43V83H303.352ZM307.242 106.578V106.086C307.242 104.227 307.508 102.516 308.039 100.953C308.57 99.375 309.352 98.0078 310.383 96.8516C311.414 95.6953 312.688 94.7969 314.203 94.1562C315.719 93.5 317.469 93.1719 319.453 93.1719C321.453 93.1719 323.211 93.5 324.727 94.1562C326.258 94.7969 327.539 95.6953 328.57 96.8516C329.602 98.0078 330.383 99.375 330.914 100.953C331.445 102.516 331.711 104.227 331.711 106.086V106.578C331.711 108.422 331.445 110.133 330.914 111.711C330.383 113.273 329.602 114.641 328.57 115.812C327.539 116.969 326.266 117.867 324.75 118.508C323.234 119.148 321.484 119.469 319.5 119.469C317.516 119.469 315.758 119.148 314.227 118.508C312.695 117.867 311.414 116.969 310.383 115.812C309.352 114.641 308.57 113.273 308.039 111.711C307.508 110.133 307.242 108.422 307.242 106.578ZM315.141 106.086V106.578C315.141 107.531 315.211 108.422 315.352 109.25C315.492 110.078 315.727 110.805 316.055 111.43C316.383 112.039 316.828 112.516 317.391 112.859C317.953 113.203 318.656 113.375 319.5 113.375C320.328 113.375 321.016 113.203 321.562 112.859C322.125 112.516 322.57 112.039 322.898 111.43C323.227 110.805 323.461 110.078 323.602 109.25C323.742 108.422 323.812 107.531 323.812 106.578V106.086C323.812 105.164 323.742 104.297 323.602 103.484C323.461 102.656 323.227 101.93 322.898 101.305C322.57 100.664 322.125 100.164 321.562 99.8047C321 99.4453 320.297 99.2656 319.453 99.2656C318.625 99.2656 317.93 99.4453 317.367 99.8047C316.82 100.164 316.383 100.664 316.055 101.305C315.727 101.93 315.492 102.656 315.352 103.484C315.211 104.297 315.141 105.164 315.141 106.086ZM342.633 116.023L349.195 93.6406H357.68L347.484 122.773C347.266 123.414 346.977 124.102 346.617 124.836C346.258 125.586 345.766 126.297 345.141 126.969C344.516 127.641 343.711 128.188 342.727 128.609C341.758 129.031 340.555 129.242 339.117 129.242C338.352 129.242 337.789 129.203 337.43 129.125C337.086 129.062 336.555 128.945 335.836 128.773V123.125C336.039 123.125 336.211 123.125 336.352 123.125C336.508 123.125 336.68 123.125 336.867 123.125C337.711 123.125 338.383 123.039 338.883 122.867C339.398 122.695 339.789 122.445 340.055 122.117C340.336 121.789 340.555 121.391 340.711 120.922L342.633 116.023ZM340.969 93.6406L345.961 111.383L346.828 119.75H341.531L332.508 93.6406H340.969ZM367.711 99.0078V119H359.812V93.6406H367.219L367.711 99.0078ZM366.75 105.453L364.945 105.5C364.945 103.719 365.156 102.078 365.578 100.578C366 99.0781 366.625 97.7734 367.453 96.6641C368.281 95.5547 369.297 94.6953 370.5 94.0859C371.719 93.4766 373.125 93.1719 374.719 93.1719C375.828 93.1719 376.836 93.3438 377.742 93.6875C378.648 94.0156 379.43 94.5391 380.086 95.2578C380.742 95.9609 381.242 96.8828 381.586 98.0234C381.945 99.1484 382.125 100.5 382.125 102.078V119H374.227V103.086C374.227 102.008 374.102 101.195 373.852 100.648C373.617 100.102 373.273 99.7344 372.82 99.5469C372.367 99.3594 371.812 99.2656 371.156 99.2656C370.469 99.2656 369.852 99.4219 369.305 99.7344C368.758 100.047 368.289 100.484 367.898 101.047C367.523 101.594 367.234 102.242 367.031 102.992C366.844 103.742 366.75 104.562 366.75 105.453ZM381.234 105.453L379.031 105.5C379.031 103.719 379.227 102.078 379.617 100.578C380.023 99.0781 380.625 97.7734 381.422 96.6641C382.234 95.5547 383.242 94.6953 384.445 94.0859C385.648 93.4766 387.047 93.1719 388.641 93.1719C389.797 93.1719 390.859 93.3438 391.828 93.6875C392.797 94.0312 393.633 94.5859 394.336 95.3516C395.039 96.1172 395.586 97.1328 395.977 98.3984C396.367 99.6484 396.562 101.195 396.562 103.039V119H388.641V103.039C388.641 101.992 388.516 101.203 388.266 100.672C388.031 100.125 387.688 99.7578 387.234 99.5703C386.781 99.3672 386.242 99.2656 385.617 99.2656C384.867 99.2656 384.219 99.4219 383.672 99.7344C383.125 100.047 382.664 100.484 382.289 101.047C381.93 101.594 381.664 102.242 381.492 102.992C381.32 103.742 381.234 104.562 381.234 105.453ZM413.367 119.469C411.305 119.469 409.461 119.148 407.836 118.508C406.211 117.852 404.836 116.953 403.711 115.812C402.602 114.672 401.75 113.359 401.156 111.875C400.578 110.391 400.289 108.82 400.289 107.164V106.273C400.289 104.414 400.547 102.695 401.062 101.117C401.578 99.5234 402.344 98.1328 403.359 96.9453C404.375 95.7578 405.648 94.8359 407.18 94.1797C408.711 93.5078 410.492 93.1719 412.523 93.1719C414.32 93.1719 415.93 93.4609 417.352 94.0391C418.773 94.6172 419.977 95.4453 420.961 96.5234C421.961 97.6016 422.719 98.9062 423.234 100.438C423.766 101.969 424.031 103.688 424.031 105.594V108.805H403.312V103.859H416.32V103.25C416.336 102.406 416.188 101.688 415.875 101.094C415.578 100.5 415.141 100.047 414.562 99.7344C413.984 99.4219 413.281 99.2656 412.453 99.2656C411.594 99.2656 410.883 99.4531 410.32 99.8281C409.773 100.203 409.344 100.719 409.031 101.375C408.734 102.016 408.523 102.758 408.398 103.602C408.273 104.445 408.211 105.336 408.211 106.273V107.164C408.211 108.102 408.336 108.953 408.586 109.719C408.852 110.484 409.227 111.141 409.711 111.688C410.211 112.219 410.805 112.633 411.492 112.93C412.195 113.227 412.992 113.375 413.883 113.375C414.961 113.375 416.023 113.172 417.07 112.766C418.117 112.359 419.016 111.688 419.766 110.75L423.352 115.016C422.836 115.75 422.102 116.461 421.148 117.148C420.211 117.836 419.086 118.398 417.773 118.836C416.461 119.258 414.992 119.469 413.367 119.469ZM435 99.0547V119H427.102V93.6406H434.508L435 99.0547ZM434.062 105.453L432.211 105.5C432.211 103.562 432.445 101.836 432.914 100.32C433.383 98.7891 434.047 97.4922 434.906 96.4297C435.766 95.3672 436.789 94.5625 437.977 94.0156C439.18 93.4531 440.516 93.1719 441.984 93.1719C443.156 93.1719 444.227 93.3438 445.195 93.6875C446.18 94.0312 447.023 94.5859 447.727 95.3516C448.445 96.1172 448.992 97.1328 449.367 98.3984C449.758 99.6484 449.953 101.195 449.953 103.039V119H442.008V103.016C442.008 102 441.867 101.227 441.586 100.695C441.305 100.148 440.898 99.7734 440.367 99.5703C439.836 99.3672 439.188 99.2656 438.422 99.2656C437.609 99.2656 436.922 99.4219 436.359 99.7344C435.797 100.047 435.344 100.484 435 101.047C434.672 101.594 434.43 102.242 434.273 102.992C434.133 103.742 434.062 104.562 434.062 105.453ZM467.695 93.6406V99.125H452.414V93.6406H467.695ZM455.625 87.3359H463.523V110.727C463.523 111.398 463.602 111.922 463.758 112.297C463.914 112.656 464.18 112.914 464.555 113.07C464.945 113.211 465.461 113.281 466.102 113.281C466.555 113.281 466.93 113.273 467.227 113.258C467.523 113.227 467.805 113.188 468.07 113.141V118.789C467.398 119.008 466.695 119.172 465.961 119.281C465.227 119.406 464.445 119.469 463.617 119.469C461.93 119.469 460.484 119.203 459.281 118.672C458.094 118.141 457.188 117.305 456.562 116.164C455.938 115.023 455.625 113.539 455.625 111.711V87.3359Z" fill="black"/>
<path d="M1134 0H1348C1356.28 0 1363 6.71573 1363 15V148C1363 156.284 1356.28 163 1348 163H1134V0Z" fill="#8962F3"/>
<path d="M1212.5 117.5L1212.5 45.5L1284.5 45.5L1284.5 117.5L1212.5 117.5Z" fill="white" fill-opacity="0.01"/>
<path d="M1221.5 81.5125L1221.5 108.5L1275.5 108.5L1275.5 81.5" stroke="white" stroke-width="7.24" stroke-linecap="round" stroke-linejoin="round"/>
<path d="M1262 68L1248.5 54.5L1235 68" stroke="white" stroke-width="7.24" stroke-linecap="round" stroke-linejoin="round"/>
<path d="M1248.49 93.5L1248.49 54.5" stroke="white" stroke-width="7.24" stroke-linecap="round" stroke-linejoin="round"/>
</svg>
