<svg width="1363" height="163" viewBox="0 0 1363 163" fill="none" xmlns="http://www.w3.org/2000/svg">
<path d="M0 15C0 6.71573 6.71573 0 15 0H37V163H15C6.71573 163 0 156.284 0 148V15Z" fill="#424242"/>
<rect width="1097" height="163" transform="translate(37)" fill="#F0F0F0"/>
<path d="M101.906 53.9219L94.3945 51.2383V48.0859L104.602 52.375V54.6367L101.906 53.9219ZM94.3945 56.1719L101.918 53.4297L104.602 52.7852V55.0352L94.3945 59.3242V56.1719ZM119.543 54.918H115.195V52.1758H119.543C120.215 52.1758 120.762 52.0664 121.184 51.8477C121.605 51.6211 121.914 51.3086 122.109 50.9102C122.305 50.5117 122.402 50.0625 122.402 49.5625C122.402 49.0547 122.305 48.582 122.109 48.1445C121.914 47.707 121.605 47.3555 121.184 47.0898C120.762 46.8242 120.215 46.6914 119.543 46.6914H116.414V61H112.898V43.9375H119.543C120.879 43.9375 122.023 44.1797 122.977 44.6641C123.938 45.1406 124.672 45.8008 125.18 46.6445C125.688 47.4883 125.941 48.4531 125.941 49.5391C125.941 50.6406 125.688 51.5938 125.18 52.3984C124.672 53.2031 123.938 53.8242 122.977 54.2617C122.023 54.6992 120.879 54.918 119.543 54.918ZM133.828 61.2344C132.844 61.2344 131.961 61.0781 131.18 60.7656C130.398 60.4453 129.734 60.0039 129.188 59.4414C128.648 58.8789 128.234 58.2266 127.945 57.4844C127.656 56.7344 127.512 55.9375 127.512 55.0938V54.625C127.512 53.6641 127.648 52.7852 127.922 51.9883C128.195 51.1914 128.586 50.5 129.094 49.9141C129.609 49.3281 130.234 48.8789 130.969 48.5664C131.703 48.2461 132.531 48.0859 133.453 48.0859C134.352 48.0859 135.148 48.2344 135.844 48.5312C136.539 48.8281 137.121 49.25 137.59 49.7969C138.066 50.3438 138.426 51 138.668 51.7656C138.91 52.5234 139.031 53.3672 139.031 54.2969V55.7031H128.953V53.4531H135.715V53.1953C135.715 52.7266 135.629 52.3086 135.457 51.9414C135.293 51.5664 135.043 51.2695 134.707 51.0508C134.371 50.832 133.941 50.7227 133.418 50.7227C132.973 50.7227 132.59 50.8203 132.27 51.0156C131.949 51.2109 131.688 51.4844 131.484 51.8359C131.289 52.1875 131.141 52.6016 131.039 53.0781C130.945 53.5469 130.898 54.0625 130.898 54.625V55.0938C130.898 55.6016 130.969 56.0703 131.109 56.5C131.258 56.9297 131.465 57.3008 131.73 57.6133C132.004 57.9258 132.332 58.168 132.715 58.3398C133.105 58.5117 133.547 58.5977 134.039 58.5977C134.648 58.5977 135.215 58.4805 135.738 58.2461C136.27 58.0039 136.727 57.6406 137.109 57.1562L138.75 58.9375C138.484 59.3203 138.121 59.6875 137.66 60.0391C137.207 60.3906 136.66 60.6797 136.02 60.9062C135.379 61.125 134.648 61.2344 133.828 61.2344ZM147.797 58.1406V52.4922C147.797 52.0859 147.73 51.7383 147.598 51.4492C147.465 51.1523 147.258 50.9219 146.977 50.7578C146.703 50.5938 146.348 50.5117 145.91 50.5117C145.535 50.5117 145.211 50.5781 144.938 50.7109C144.664 50.8359 144.453 51.0195 144.305 51.2617C144.156 51.4961 144.082 51.7734 144.082 52.0938H140.707C140.707 51.5547 140.832 51.043 141.082 50.5586C141.332 50.0742 141.695 49.6484 142.172 49.2812C142.648 48.9062 143.215 48.6133 143.871 48.4023C144.535 48.1914 145.277 48.0859 146.098 48.0859C147.082 48.0859 147.957 48.25 148.723 48.5781C149.488 48.9062 150.09 49.3984 150.527 50.0547C150.973 50.7109 151.195 51.5312 151.195 52.5156V57.9414C151.195 58.6367 151.238 59.207 151.324 59.6523C151.41 60.0898 151.535 60.4727 151.699 60.8008V61H148.289C148.125 60.6562 148 60.2266 147.914 59.7109C147.836 59.1875 147.797 58.6641 147.797 58.1406ZM148.242 53.2773L148.266 55.1875H146.379C145.934 55.1875 145.547 55.2383 145.219 55.3398C144.891 55.4414 144.621 55.5859 144.41 55.7734C144.199 55.9531 144.043 56.1641 143.941 56.4062C143.848 56.6484 143.801 56.9141 143.801 57.2031C143.801 57.4922 143.867 57.7539 144 57.9883C144.133 58.2148 144.324 58.3945 144.574 58.5273C144.824 58.6523 145.117 58.7148 145.453 58.7148C145.961 58.7148 146.402 58.6133 146.777 58.4102C147.152 58.207 147.441 57.957 147.645 57.6602C147.855 57.3633 147.965 57.082 147.973 56.8164L148.863 58.2461C148.738 58.5664 148.566 58.8984 148.348 59.2422C148.137 59.5859 147.867 59.9102 147.539 60.2148C147.211 60.5117 146.816 60.7578 146.355 60.9531C145.895 61.1406 145.348 61.2344 144.715 61.2344C143.91 61.2344 143.18 61.0742 142.523 60.7539C141.875 60.4258 141.359 59.9766 140.977 59.4062C140.602 58.8281 140.414 58.1719 140.414 57.4375C140.414 56.7734 140.539 56.1836 140.789 55.668C141.039 55.1523 141.406 54.7188 141.891 54.3672C142.383 54.0078 142.996 53.7383 143.73 53.5586C144.465 53.3711 145.316 53.2773 146.285 53.2773H148.242ZM159.035 58.5977C159.449 58.5977 159.816 58.5195 160.137 58.3633C160.457 58.1992 160.707 57.9727 160.887 57.6836C161.074 57.3867 161.172 57.0391 161.18 56.6406H164.355C164.348 57.5312 164.109 58.3242 163.641 59.0195C163.172 59.707 162.543 60.25 161.754 60.6484C160.965 61.0391 160.082 61.2344 159.105 61.2344C158.121 61.2344 157.262 61.0703 156.527 60.7422C155.801 60.4141 155.195 59.9609 154.711 59.3828C154.227 58.7969 153.863 58.1172 153.621 57.3438C153.379 56.5625 153.258 55.7266 153.258 54.8359V54.4961C153.258 53.5977 153.379 52.7617 153.621 51.9883C153.863 51.207 154.227 50.5273 154.711 49.9492C155.195 49.3633 155.801 48.9062 156.527 48.5781C157.254 48.25 158.105 48.0859 159.082 48.0859C160.121 48.0859 161.031 48.2852 161.812 48.6836C162.602 49.082 163.219 49.6523 163.664 50.3945C164.117 51.1289 164.348 52 164.355 53.0078H161.18C161.172 52.5859 161.082 52.2031 160.91 51.8594C160.746 51.5156 160.504 51.2422 160.184 51.0391C159.871 50.8281 159.484 50.7227 159.023 50.7227C158.531 50.7227 158.129 50.8281 157.816 51.0391C157.504 51.2422 157.262 51.5234 157.09 51.8828C156.918 52.2344 156.797 52.6367 156.727 53.0898C156.664 53.5352 156.633 54.0039 156.633 54.4961V54.8359C156.633 55.3281 156.664 55.8008 156.727 56.2539C156.789 56.707 156.906 57.1094 157.078 57.4609C157.258 57.8125 157.504 58.0898 157.816 58.293C158.129 58.4961 158.535 58.5977 159.035 58.5977ZM172.148 61.2344C171.164 61.2344 170.281 61.0781 169.5 60.7656C168.719 60.4453 168.055 60.0039 167.508 59.4414C166.969 58.8789 166.555 58.2266 166.266 57.4844C165.977 56.7344 165.832 55.9375 165.832 55.0938V54.625C165.832 53.6641 165.969 52.7852 166.242 51.9883C166.516 51.1914 166.906 50.5 167.414 49.9141C167.93 49.3281 168.555 48.8789 169.289 48.5664C170.023 48.2461 170.852 48.0859 171.773 48.0859C172.672 48.0859 173.469 48.2344 174.164 48.5312C174.859 48.8281 175.441 49.25 175.91 49.7969C176.387 50.3438 176.746 51 176.988 51.7656C177.23 52.5234 177.352 53.3672 177.352 54.2969V55.7031H167.273V53.4531H174.035V53.1953C174.035 52.7266 173.949 52.3086 173.777 51.9414C173.613 51.5664 173.363 51.2695 173.027 51.0508C172.691 50.832 172.262 50.7227 171.738 50.7227C171.293 50.7227 170.91 50.8203 170.59 51.0156C170.27 51.2109 170.008 51.4844 169.805 51.8359C169.609 52.1875 169.461 52.6016 169.359 53.0781C169.266 53.5469 169.219 54.0625 169.219 54.625V55.0938C169.219 55.6016 169.289 56.0703 169.43 56.5C169.578 56.9297 169.785 57.3008 170.051 57.6133C170.324 57.9258 170.652 58.168 171.035 58.3398C171.426 58.5117 171.867 58.5977 172.359 58.5977C172.969 58.5977 173.535 58.4805 174.059 58.2461C174.59 58.0039 175.047 57.6406 175.43 57.1562L177.07 58.9375C176.805 59.3203 176.441 59.6875 175.98 60.0391C175.527 60.3906 174.98 60.6797 174.34 60.9062C173.699 61.125 172.969 61.2344 172.148 61.2344ZM192.105 54.918H187.758V52.1758H192.105C192.777 52.1758 193.324 52.0664 193.746 51.8477C194.168 51.6211 194.477 51.3086 194.672 50.9102C194.867 50.5117 194.965 50.0625 194.965 49.5625C194.965 49.0547 194.867 48.582 194.672 48.1445C194.477 47.707 194.168 47.3555 193.746 47.0898C193.324 46.8242 192.777 46.6914 192.105 46.6914H188.977V61H185.461V43.9375H192.105C193.441 43.9375 194.586 44.1797 195.539 44.6641C196.5 45.1406 197.234 45.8008 197.742 46.6445C198.25 47.4883 198.504 48.4531 198.504 49.5391C198.504 50.6406 198.25 51.5938 197.742 52.3984C197.234 53.2031 196.5 53.8242 195.539 54.2617C194.586 54.6992 193.441 54.918 192.105 54.918ZM208.219 57.9648V48.3203H211.594V61H208.418L208.219 57.9648ZM208.594 55.3633L209.59 55.3398C209.59 56.1836 209.492 56.9688 209.297 57.6953C209.102 58.4141 208.809 59.0391 208.418 59.5703C208.027 60.0938 207.535 60.5039 206.941 60.8008C206.348 61.0898 205.648 61.2344 204.844 61.2344C204.227 61.2344 203.656 61.1484 203.133 60.9766C202.617 60.7969 202.172 60.5195 201.797 60.1445C201.43 59.7617 201.141 59.2734 200.93 58.6797C200.727 58.0781 200.625 57.3555 200.625 56.5117V48.3203H204V56.5352C204 56.9102 204.043 57.2266 204.129 57.4844C204.223 57.7422 204.352 57.9531 204.516 58.1172C204.68 58.2812 204.871 58.3984 205.09 58.4688C205.316 58.5391 205.566 58.5742 205.84 58.5742C206.535 58.5742 207.082 58.4336 207.48 58.1523C207.887 57.8711 208.172 57.4883 208.336 57.0039C208.508 56.5117 208.594 55.9648 208.594 55.3633ZM217.734 43V61H214.348V43H217.734ZM227.379 57.4961C227.379 57.2539 227.309 57.0352 227.168 56.8398C227.027 56.6445 226.766 56.4648 226.383 56.3008C226.008 56.1289 225.465 55.9727 224.754 55.832C224.113 55.6914 223.516 55.5156 222.961 55.3047C222.414 55.0859 221.938 54.8242 221.531 54.5195C221.133 54.2148 220.82 53.8555 220.594 53.4414C220.367 53.0195 220.254 52.5391 220.254 52C220.254 51.4688 220.367 50.9688 220.594 50.5C220.828 50.0312 221.16 49.6172 221.59 49.2578C222.027 48.8906 222.559 48.6055 223.184 48.4023C223.816 48.1914 224.527 48.0859 225.316 48.0859C226.418 48.0859 227.363 48.2617 228.152 48.6133C228.949 48.9648 229.559 49.4492 229.98 50.0664C230.41 50.6758 230.625 51.3711 230.625 52.1523H227.25C227.25 51.8242 227.18 51.5312 227.039 51.2734C226.906 51.0078 226.695 50.8008 226.406 50.6523C226.125 50.4961 225.758 50.418 225.305 50.418C224.93 50.418 224.605 50.4844 224.332 50.6172C224.059 50.7422 223.848 50.9141 223.699 51.1328C223.559 51.3438 223.488 51.5781 223.488 51.8359C223.488 52.0312 223.527 52.207 223.605 52.3633C223.691 52.5117 223.828 52.6484 224.016 52.7734C224.203 52.8984 224.445 53.0156 224.742 53.125C225.047 53.2266 225.422 53.3203 225.867 53.4062C226.781 53.5938 227.598 53.8398 228.316 54.1445C229.035 54.4414 229.605 54.8477 230.027 55.3633C230.449 55.8711 230.66 56.5391 230.66 57.3672C230.66 57.9297 230.535 58.4453 230.285 58.9141C230.035 59.3828 229.676 59.793 229.207 60.1445C228.738 60.4883 228.176 60.7578 227.52 60.9531C226.871 61.1406 226.141 61.2344 225.328 61.2344C224.148 61.2344 223.148 61.0234 222.328 60.6016C221.516 60.1797 220.898 59.6445 220.477 58.9961C220.062 58.3398 219.855 57.668 219.855 56.9805H223.055C223.07 57.4414 223.188 57.8125 223.406 58.0938C223.633 58.375 223.918 58.5781 224.262 58.7031C224.613 58.8281 224.992 58.8906 225.398 58.8906C225.836 58.8906 226.199 58.832 226.488 58.7148C226.777 58.5898 226.996 58.4258 227.145 58.2227C227.301 58.0117 227.379 57.7695 227.379 57.4961ZM238.688 61.2344C237.703 61.2344 236.82 61.0781 236.039 60.7656C235.258 60.4453 234.594 60.0039 234.047 59.4414C233.508 58.8789 233.094 58.2266 232.805 57.4844C232.516 56.7344 232.371 55.9375 232.371 55.0938V54.625C232.371 53.6641 232.508 52.7852 232.781 51.9883C233.055 51.1914 233.445 50.5 233.953 49.9141C234.469 49.3281 235.094 48.8789 235.828 48.5664C236.562 48.2461 237.391 48.0859 238.312 48.0859C239.211 48.0859 240.008 48.2344 240.703 48.5312C241.398 48.8281 241.98 49.25 242.449 49.7969C242.926 50.3438 243.285 51 243.527 51.7656C243.77 52.5234 243.891 53.3672 243.891 54.2969V55.7031H233.812V53.4531H240.574V53.1953C240.574 52.7266 240.488 52.3086 240.316 51.9414C240.152 51.5664 239.902 51.2695 239.566 51.0508C239.23 50.832 238.801 50.7227 238.277 50.7227C237.832 50.7227 237.449 50.8203 237.129 51.0156C236.809 51.2109 236.547 51.4844 236.344 51.8359C236.148 52.1875 236 52.6016 235.898 53.0781C235.805 53.5469 235.758 54.0625 235.758 54.625V55.0938C235.758 55.6016 235.828 56.0703 235.969 56.5C236.117 56.9297 236.324 57.3008 236.59 57.6133C236.863 57.9258 237.191 58.168 237.574 58.3398C237.965 58.5117 238.406 58.5977 238.898 58.5977C239.508 58.5977 240.074 58.4805 240.598 58.2461C241.129 58.0039 241.586 57.6406 241.969 57.1562L243.609 58.9375C243.344 59.3203 242.98 59.6875 242.52 60.0391C242.066 60.3906 241.52 60.6797 240.879 60.9062C240.238 61.125 239.508 61.2344 238.688 61.2344Z" fill="#888888"/>
<path d="M114.117 84.875H122.344V107.164C122.344 109.82 121.789 112.07 120.68 113.914C119.57 115.742 118.016 117.125 116.016 118.062C114.016 119 111.664 119.469 108.961 119.469C106.289 119.469 103.938 119 101.906 118.062C99.8906 117.125 98.3125 115.742 97.1719 113.914C96.0469 112.07 95.4844 109.82 95.4844 107.164V84.875H103.734V107.164C103.734 108.57 103.938 109.719 104.344 110.609C104.75 111.484 105.344 112.125 106.125 112.531C106.906 112.938 107.852 113.141 108.961 113.141C110.086 113.141 111.031 112.938 111.797 112.531C112.562 112.125 113.141 111.484 113.531 110.609C113.922 109.719 114.117 108.57 114.117 107.164V84.875ZM134.906 99.0547V119H127.008V93.6406H134.414L134.906 99.0547ZM133.969 105.453L132.117 105.5C132.117 103.562 132.352 101.836 132.82 100.32C133.289 98.7891 133.953 97.4922 134.812 96.4297C135.672 95.3672 136.695 94.5625 137.883 94.0156C139.086 93.4531 140.422 93.1719 141.891 93.1719C143.062 93.1719 144.133 93.3438 145.102 93.6875C146.086 94.0312 146.93 94.5859 147.633 95.3516C148.352 96.1172 148.898 97.1328 149.273 98.3984C149.664 99.6484 149.859 101.195 149.859 103.039V119H141.914V103.016C141.914 102 141.773 101.227 141.492 100.695C141.211 100.148 140.805 99.7734 140.273 99.5703C139.742 99.3672 139.094 99.2656 138.328 99.2656C137.516 99.2656 136.828 99.4219 136.266 99.7344C135.703 100.047 135.25 100.484 134.906 101.047C134.578 101.594 134.336 102.242 134.18 102.992C134.039 103.742 133.969 104.562 133.969 105.453ZM162.586 93.6406V119H154.664V93.6406H162.586ZM154.195 87.1016C154.195 85.9766 154.602 85.0547 155.414 84.3359C156.227 83.6172 157.281 83.2578 158.578 83.2578C159.875 83.2578 160.93 83.6172 161.742 84.3359C162.555 85.0547 162.961 85.9766 162.961 87.1016C162.961 88.2266 162.555 89.1484 161.742 89.8672C160.93 90.5859 159.875 90.9453 158.578 90.9453C157.281 90.9453 156.227 90.5859 155.414 89.8672C154.602 89.1484 154.195 88.2266 154.195 87.1016ZM180.82 93.6406V99.125H165.539V93.6406H180.82ZM168.75 87.3359H176.648V110.727C176.648 111.398 176.727 111.922 176.883 112.297C177.039 112.656 177.305 112.914 177.68 113.07C178.07 113.211 178.586 113.281 179.227 113.281C179.68 113.281 180.055 113.273 180.352 113.258C180.648 113.227 180.93 113.188 181.195 113.141V118.789C180.523 119.008 179.82 119.172 179.086 119.281C178.352 119.406 177.57 119.469 176.742 119.469C175.055 119.469 173.609 119.203 172.406 118.672C171.219 118.141 170.312 117.305 169.688 116.164C169.062 115.023 168.75 113.539 168.75 111.711V87.3359ZM211.406 84.875V119H203.18V84.875H211.406ZM221.672 84.875V91.2266H193.148V84.875H221.672ZM234.961 119.469C232.898 119.469 231.055 119.148 229.43 118.508C227.805 117.852 226.43 116.953 225.305 115.812C224.195 114.672 223.344 113.359 222.75 111.875C222.172 110.391 221.883 108.82 221.883 107.164V106.273C221.883 104.414 222.141 102.695 222.656 101.117C223.172 99.5234 223.938 98.1328 224.953 96.9453C225.969 95.7578 227.242 94.8359 228.773 94.1797C230.305 93.5078 232.086 93.1719 234.117 93.1719C235.914 93.1719 237.523 93.4609 238.945 94.0391C240.367 94.6172 241.57 95.4453 242.555 96.5234C243.555 97.6016 244.312 98.9062 244.828 100.438C245.359 101.969 245.625 103.688 245.625 105.594V108.805H224.906V103.859H237.914V103.25C237.93 102.406 237.781 101.688 237.469 101.094C237.172 100.5 236.734 100.047 236.156 99.7344C235.578 99.4219 234.875 99.2656 234.047 99.2656C233.188 99.2656 232.477 99.4531 231.914 99.8281C231.367 100.203 230.938 100.719 230.625 101.375C230.328 102.016 230.117 102.758 229.992 103.602C229.867 104.445 229.805 105.336 229.805 106.273V107.164C229.805 108.102 229.93 108.953 230.18 109.719C230.445 110.484 230.82 111.141 231.305 111.688C231.805 112.219 232.398 112.633 233.086 112.93C233.789 113.227 234.586 113.375 235.477 113.375C236.555 113.375 237.617 113.172 238.664 112.766C239.711 112.359 240.609 111.688 241.359 110.75L244.945 115.016C244.43 115.75 243.695 116.461 242.742 117.148C241.805 117.836 240.68 118.398 239.367 118.836C238.055 119.258 236.586 119.469 234.961 119.469ZM262.125 111.875C262.125 111.438 261.977 111.062 261.68 110.75C261.398 110.422 260.898 110.125 260.18 109.859C259.461 109.578 258.453 109.297 257.156 109.016C255.922 108.75 254.758 108.398 253.664 107.961C252.586 107.523 251.641 106.992 250.828 106.367C250.016 105.742 249.375 105 248.906 104.141C248.453 103.281 248.227 102.297 248.227 101.188C248.227 100.109 248.453 99.0938 248.906 98.1406C249.375 97.1719 250.055 96.3203 250.945 95.5859C251.852 94.8359 252.953 94.25 254.25 93.8281C255.547 93.3906 257.023 93.1719 258.68 93.1719C260.961 93.1719 262.93 93.5234 264.586 94.2266C266.242 94.9141 267.516 95.8828 268.406 97.1328C269.312 98.3672 269.766 99.7969 269.766 101.422H261.867C261.867 100.781 261.758 100.234 261.539 99.7812C261.336 99.3281 261 98.9844 260.531 98.75C260.062 98.5 259.438 98.375 258.656 98.375C258.109 98.375 257.609 98.4766 257.156 98.6797C256.719 98.8828 256.367 99.1641 256.102 99.5234C255.836 99.8828 255.703 100.305 255.703 100.789C255.703 101.133 255.781 101.445 255.938 101.727C256.109 101.992 256.367 102.242 256.711 102.477C257.055 102.695 257.492 102.898 258.023 103.086C258.555 103.258 259.195 103.414 259.945 103.555C261.648 103.867 263.242 104.312 264.727 104.891C266.211 105.469 267.414 106.289 268.336 107.352C269.273 108.414 269.742 109.844 269.742 111.641C269.742 112.766 269.484 113.805 268.969 114.758C268.453 115.695 267.711 116.523 266.742 117.242C265.773 117.945 264.609 118.492 263.25 118.883C261.891 119.273 260.359 119.469 258.656 119.469C256.234 119.469 254.188 119.039 252.516 118.18C250.844 117.305 249.578 116.211 248.719 114.898C247.875 113.57 247.453 112.227 247.453 110.867H254.812C254.844 111.648 255.031 112.289 255.375 112.789C255.734 113.289 256.211 113.656 256.805 113.891C257.398 114.125 258.086 114.242 258.867 114.242C259.586 114.242 260.18 114.141 260.648 113.938C261.133 113.734 261.5 113.461 261.75 113.117C262 112.758 262.125 112.344 262.125 111.875ZM286.805 93.6406V99.125H271.523V93.6406H286.805ZM274.734 87.3359H282.633V110.727C282.633 111.398 282.711 111.922 282.867 112.297C283.023 112.656 283.289 112.914 283.664 113.07C284.055 113.211 284.57 113.281 285.211 113.281C285.664 113.281 286.039 113.273 286.336 113.258C286.633 113.227 286.914 113.188 287.18 113.141V118.789C286.508 119.008 285.805 119.172 285.07 119.281C284.336 119.406 283.555 119.469 282.727 119.469C281.039 119.469 279.594 119.203 278.391 118.672C277.203 118.141 276.297 117.305 275.672 116.164C275.047 115.023 274.734 113.539 274.734 111.711V87.3359ZM298.289 93.6406V119H290.367V93.6406H298.289ZM289.898 87.1016C289.898 85.9766 290.305 85.0547 291.117 84.3359C291.93 83.6172 292.984 83.2578 294.281 83.2578C295.578 83.2578 296.633 83.6172 297.445 84.3359C298.258 85.0547 298.664 85.9766 298.664 87.1016C298.664 88.2266 298.258 89.1484 297.445 89.8672C296.633 90.5859 295.578 90.9453 294.281 90.9453C292.984 90.9453 291.93 90.5859 291.117 89.8672C290.305 89.1484 289.898 88.2266 289.898 87.1016ZM310.922 99.0547V119H303.023V93.6406H310.43L310.922 99.0547ZM309.984 105.453L308.133 105.5C308.133 103.562 308.367 101.836 308.836 100.32C309.305 98.7891 309.969 97.4922 310.828 96.4297C311.688 95.3672 312.711 94.5625 313.898 94.0156C315.102 93.4531 316.438 93.1719 317.906 93.1719C319.078 93.1719 320.148 93.3438 321.117 93.6875C322.102 94.0312 322.945 94.5859 323.648 95.3516C324.367 96.1172 324.914 97.1328 325.289 98.3984C325.68 99.6484 325.875 101.195 325.875 103.039V119H317.93V103.016C317.93 102 317.789 101.227 317.508 100.695C317.227 100.148 316.82 99.7734 316.289 99.5703C315.758 99.3672 315.109 99.2656 314.344 99.2656C313.531 99.2656 312.844 99.4219 312.281 99.7344C311.719 100.047 311.266 100.484 310.922 101.047C310.594 101.594 310.352 102.242 310.195 102.992C310.055 103.742 309.984 104.562 309.984 105.453ZM346.195 93.6406H353.367V118.016C353.367 120.359 352.828 122.344 351.75 123.969C350.672 125.609 349.164 126.852 347.227 127.695C345.305 128.555 343.055 128.984 340.477 128.984C339.336 128.984 338.172 128.836 336.984 128.539C335.797 128.258 334.688 127.836 333.656 127.273C332.625 126.711 331.758 126.016 331.055 125.188L334.359 120.547C335 121.266 335.805 121.875 336.773 122.375C337.742 122.891 338.883 123.148 340.195 123.148C341.336 123.148 342.289 122.945 343.055 122.539C343.836 122.133 344.43 121.539 344.836 120.758C345.242 119.992 345.445 119.062 345.445 117.969V99.6406L346.195 93.6406ZM329.344 106.625V106.133C329.344 104.211 329.578 102.461 330.047 100.883C330.531 99.2891 331.219 97.9219 332.109 96.7812C333.016 95.625 334.109 94.7344 335.391 94.1094C336.672 93.4844 338.117 93.1719 339.727 93.1719C341.461 93.1719 342.883 93.5078 343.992 94.1797C345.117 94.8359 346.016 95.7578 346.688 96.9453C347.375 98.1328 347.906 99.5234 348.281 101.117C348.672 102.695 349 104.398 349.266 106.227V106.812C349 108.531 348.633 110.156 348.164 111.688C347.711 113.203 347.117 114.547 346.383 115.719C345.648 116.891 344.727 117.812 343.617 118.484C342.523 119.141 341.211 119.469 339.68 119.469C338.086 119.469 336.648 119.148 335.367 118.508C334.102 117.867 333.016 116.969 332.109 115.812C331.219 114.656 330.531 113.297 330.047 111.734C329.578 110.172 329.344 108.469 329.344 106.625ZM337.242 106.133V106.625C337.242 107.578 337.328 108.461 337.5 109.273C337.688 110.086 337.969 110.805 338.344 111.43C338.719 112.039 339.18 112.516 339.727 112.859C340.289 113.203 340.945 113.375 341.695 113.375C342.836 113.375 343.758 113.133 344.461 112.648C345.164 112.164 345.672 111.477 345.984 110.586C346.297 109.695 346.43 108.648 346.383 107.445V105.594C346.414 104.562 346.344 103.656 346.172 102.875C346 102.078 345.727 101.414 345.352 100.883C344.992 100.352 344.508 99.9531 343.898 99.6875C343.305 99.4062 342.586 99.2656 341.742 99.2656C341.008 99.2656 340.359 99.4375 339.797 99.7812C339.234 100.125 338.766 100.609 338.391 101.234C338.016 101.844 337.727 102.57 337.523 103.414C337.336 104.242 337.242 105.148 337.242 106.133Z" fill="black"/>
<path d="M1134 0H1348C1356.28 0 1363 6.71573 1363 15V148C1363 156.284 1356.28 163 1348 163H1134V0Z" fill="#8962F3"/>
<path d="M1210.62 43.625H1286.38V119.375H1210.62V43.625Z" fill="white" fill-opacity="0.01"/>
<path d="M1276.91 72.0312V105.172C1276.91 107.787 1274.79 109.906 1272.17 109.906H1224.83C1222.21 109.906 1220.09 107.787 1220.09 105.172V57.8281C1220.09 55.2134 1222.21 53.0938 1224.83 53.0938H1261.12" stroke="white" stroke-width="7.24" stroke-linecap="round" stroke-linejoin="round"/>
<path d="M1232.72 75.1875L1248.5 87.8125L1276.91 53.0938" stroke="white" stroke-width="7.24" stroke-linecap="round" stroke-linejoin="round"/>
</svg>
