<svg width="1363" height="163" viewBox="0 0 1363 163" fill="none" xmlns="http://www.w3.org/2000/svg">
<path d="M0 15C0 6.71573 6.71573 0 15 0H37V163H15C6.71573 163 0 156.284 0 148V15Z" fill="#424242"/>
<rect width="1097" height="163" transform="translate(37)" fill="#F0F0F0"/>
<path d="M101.906 53.9219L94.3945 51.2383V48.0859L104.602 52.375V54.6367L101.906 53.9219ZM94.3945 56.1719L101.918 53.4297L104.602 52.7852V55.0352L94.3945 59.3242V56.1719ZM119.543 54.918H115.195V52.1758H119.543C120.215 52.1758 120.762 52.0664 121.184 51.8477C121.605 51.6211 121.914 51.3086 122.109 50.9102C122.305 50.5117 122.402 50.0625 122.402 49.5625C122.402 49.0547 122.305 48.582 122.109 48.1445C121.914 47.707 121.605 47.3555 121.184 47.0898C120.762 46.8242 120.215 46.6914 119.543 46.6914H116.414V61H112.898V43.9375H119.543C120.879 43.9375 122.023 44.1797 122.977 44.6641C123.938 45.1406 124.672 45.8008 125.18 46.6445C125.688 47.4883 125.941 48.4531 125.941 49.5391C125.941 50.6406 125.688 51.5938 125.18 52.3984C124.672 53.2031 123.938 53.8242 122.977 54.2617C122.023 54.6992 120.879 54.918 119.543 54.918ZM133.828 61.2344C132.844 61.2344 131.961 61.0781 131.18 60.7656C130.398 60.4453 129.734 60.0039 129.188 59.4414C128.648 58.8789 128.234 58.2266 127.945 57.4844C127.656 56.7344 127.512 55.9375 127.512 55.0938V54.625C127.512 53.6641 127.648 52.7852 127.922 51.9883C128.195 51.1914 128.586 50.5 129.094 49.9141C129.609 49.3281 130.234 48.8789 130.969 48.5664C131.703 48.2461 132.531 48.0859 133.453 48.0859C134.352 48.0859 135.148 48.2344 135.844 48.5312C136.539 48.8281 137.121 49.25 137.59 49.7969C138.066 50.3438 138.426 51 138.668 51.7656C138.91 52.5234 139.031 53.3672 139.031 54.2969V55.7031H128.953V53.4531H135.715V53.1953C135.715 52.7266 135.629 52.3086 135.457 51.9414C135.293 51.5664 135.043 51.2695 134.707 51.0508C134.371 50.832 133.941 50.7227 133.418 50.7227C132.973 50.7227 132.59 50.8203 132.27 51.0156C131.949 51.2109 131.688 51.4844 131.484 51.8359C131.289 52.1875 131.141 52.6016 131.039 53.0781C130.945 53.5469 130.898 54.0625 130.898 54.625V55.0938C130.898 55.6016 130.969 56.0703 131.109 56.5C131.258 56.9297 131.465 57.3008 131.73 57.6133C132.004 57.9258 132.332 58.168 132.715 58.3398C133.105 58.5117 133.547 58.5977 134.039 58.5977C134.648 58.5977 135.215 58.4805 135.738 58.2461C136.27 58.0039 136.727 57.6406 137.109 57.1562L138.75 58.9375C138.484 59.3203 138.121 59.6875 137.66 60.0391C137.207 60.3906 136.66 60.6797 136.02 60.9062C135.379 61.125 134.648 61.2344 133.828 61.2344ZM147.797 58.1406V52.4922C147.797 52.0859 147.73 51.7383 147.598 51.4492C147.465 51.1523 147.258 50.9219 146.977 50.7578C146.703 50.5938 146.348 50.5117 145.91 50.5117C145.535 50.5117 145.211 50.5781 144.938 50.7109C144.664 50.8359 144.453 51.0195 144.305 51.2617C144.156 51.4961 144.082 51.7734 144.082 52.0938H140.707C140.707 51.5547 140.832 51.043 141.082 50.5586C141.332 50.0742 141.695 49.6484 142.172 49.2812C142.648 48.9062 143.215 48.6133 143.871 48.4023C144.535 48.1914 145.277 48.0859 146.098 48.0859C147.082 48.0859 147.957 48.25 148.723 48.5781C149.488 48.9062 150.09 49.3984 150.527 50.0547C150.973 50.7109 151.195 51.5312 151.195 52.5156V57.9414C151.195 58.6367 151.238 59.207 151.324 59.6523C151.41 60.0898 151.535 60.4727 151.699 60.8008V61H148.289C148.125 60.6562 148 60.2266 147.914 59.7109C147.836 59.1875 147.797 58.6641 147.797 58.1406ZM148.242 53.2773L148.266 55.1875H146.379C145.934 55.1875 145.547 55.2383 145.219 55.3398C144.891 55.4414 144.621 55.5859 144.41 55.7734C144.199 55.9531 144.043 56.1641 143.941 56.4062C143.848 56.6484 143.801 56.9141 143.801 57.2031C143.801 57.4922 143.867 57.7539 144 57.9883C144.133 58.2148 144.324 58.3945 144.574 58.5273C144.824 58.6523 145.117 58.7148 145.453 58.7148C145.961 58.7148 146.402 58.6133 146.777 58.4102C147.152 58.207 147.441 57.957 147.645 57.6602C147.855 57.3633 147.965 57.082 147.973 56.8164L148.863 58.2461C148.738 58.5664 148.566 58.8984 148.348 59.2422C148.137 59.5859 147.867 59.9102 147.539 60.2148C147.211 60.5117 146.816 60.7578 146.355 60.9531C145.895 61.1406 145.348 61.2344 144.715 61.2344C143.91 61.2344 143.18 61.0742 142.523 60.7539C141.875 60.4258 141.359 59.9766 140.977 59.4062C140.602 58.8281 140.414 58.1719 140.414 57.4375C140.414 56.7734 140.539 56.1836 140.789 55.668C141.039 55.1523 141.406 54.7188 141.891 54.3672C142.383 54.0078 142.996 53.7383 143.73 53.5586C144.465 53.3711 145.316 53.2773 146.285 53.2773H148.242ZM159.035 58.5977C159.449 58.5977 159.816 58.5195 160.137 58.3633C160.457 58.1992 160.707 57.9727 160.887 57.6836C161.074 57.3867 161.172 57.0391 161.18 56.6406H164.355C164.348 57.5312 164.109 58.3242 163.641 59.0195C163.172 59.707 162.543 60.25 161.754 60.6484C160.965 61.0391 160.082 61.2344 159.105 61.2344C158.121 61.2344 157.262 61.0703 156.527 60.7422C155.801 60.4141 155.195 59.9609 154.711 59.3828C154.227 58.7969 153.863 58.1172 153.621 57.3438C153.379 56.5625 153.258 55.7266 153.258 54.8359V54.4961C153.258 53.5977 153.379 52.7617 153.621 51.9883C153.863 51.207 154.227 50.5273 154.711 49.9492C155.195 49.3633 155.801 48.9062 156.527 48.5781C157.254 48.25 158.105 48.0859 159.082 48.0859C160.121 48.0859 161.031 48.2852 161.812 48.6836C162.602 49.082 163.219 49.6523 163.664 50.3945C164.117 51.1289 164.348 52 164.355 53.0078H161.18C161.172 52.5859 161.082 52.2031 160.91 51.8594C160.746 51.5156 160.504 51.2422 160.184 51.0391C159.871 50.8281 159.484 50.7227 159.023 50.7227C158.531 50.7227 158.129 50.8281 157.816 51.0391C157.504 51.2422 157.262 51.5234 157.09 51.8828C156.918 52.2344 156.797 52.6367 156.727 53.0898C156.664 53.5352 156.633 54.0039 156.633 54.4961V54.8359C156.633 55.3281 156.664 55.8008 156.727 56.2539C156.789 56.707 156.906 57.1094 157.078 57.4609C157.258 57.8125 157.504 58.0898 157.816 58.293C158.129 58.4961 158.535 58.5977 159.035 58.5977ZM172.148 61.2344C171.164 61.2344 170.281 61.0781 169.5 60.7656C168.719 60.4453 168.055 60.0039 167.508 59.4414C166.969 58.8789 166.555 58.2266 166.266 57.4844C165.977 56.7344 165.832 55.9375 165.832 55.0938V54.625C165.832 53.6641 165.969 52.7852 166.242 51.9883C166.516 51.1914 166.906 50.5 167.414 49.9141C167.93 49.3281 168.555 48.8789 169.289 48.5664C170.023 48.2461 170.852 48.0859 171.773 48.0859C172.672 48.0859 173.469 48.2344 174.164 48.5312C174.859 48.8281 175.441 49.25 175.91 49.7969C176.387 50.3438 176.746 51 176.988 51.7656C177.23 52.5234 177.352 53.3672 177.352 54.2969V55.7031H167.273V53.4531H174.035V53.1953C174.035 52.7266 173.949 52.3086 173.777 51.9414C173.613 51.5664 173.363 51.2695 173.027 51.0508C172.691 50.832 172.262 50.7227 171.738 50.7227C171.293 50.7227 170.91 50.8203 170.59 51.0156C170.27 51.2109 170.008 51.4844 169.805 51.8359C169.609 52.1875 169.461 52.6016 169.359 53.0781C169.266 53.5469 169.219 54.0625 169.219 54.625V55.0938C169.219 55.6016 169.289 56.0703 169.43 56.5C169.578 56.9297 169.785 57.3008 170.051 57.6133C170.324 57.9258 170.652 58.168 171.035 58.3398C171.426 58.5117 171.867 58.5977 172.359 58.5977C172.969 58.5977 173.535 58.4805 174.059 58.2461C174.59 58.0039 175.047 57.6406 175.43 57.1562L177.07 58.9375C176.805 59.3203 176.441 59.6875 175.98 60.0391C175.527 60.3906 174.98 60.6797 174.34 60.9062C173.699 61.125 172.969 61.2344 172.148 61.2344ZM192.105 54.918H187.758V52.1758H192.105C192.777 52.1758 193.324 52.0664 193.746 51.8477C194.168 51.6211 194.477 51.3086 194.672 50.9102C194.867 50.5117 194.965 50.0625 194.965 49.5625C194.965 49.0547 194.867 48.582 194.672 48.1445C194.477 47.707 194.168 47.3555 193.746 47.0898C193.324 46.8242 192.777 46.6914 192.105 46.6914H188.977V61H185.461V43.9375H192.105C193.441 43.9375 194.586 44.1797 195.539 44.6641C196.5 45.1406 197.234 45.8008 197.742 46.6445C198.25 47.4883 198.504 48.4531 198.504 49.5391C198.504 50.6406 198.25 51.5938 197.742 52.3984C197.234 53.2031 196.5 53.8242 195.539 54.2617C194.586 54.6992 193.441 54.918 192.105 54.918ZM208.219 57.9648V48.3203H211.594V61H208.418L208.219 57.9648ZM208.594 55.3633L209.59 55.3398C209.59 56.1836 209.492 56.9688 209.297 57.6953C209.102 58.4141 208.809 59.0391 208.418 59.5703C208.027 60.0938 207.535 60.5039 206.941 60.8008C206.348 61.0898 205.648 61.2344 204.844 61.2344C204.227 61.2344 203.656 61.1484 203.133 60.9766C202.617 60.7969 202.172 60.5195 201.797 60.1445C201.43 59.7617 201.141 59.2734 200.93 58.6797C200.727 58.0781 200.625 57.3555 200.625 56.5117V48.3203H204V56.5352C204 56.9102 204.043 57.2266 204.129 57.4844C204.223 57.7422 204.352 57.9531 204.516 58.1172C204.68 58.2812 204.871 58.3984 205.09 58.4688C205.316 58.5391 205.566 58.5742 205.84 58.5742C206.535 58.5742 207.082 58.4336 207.48 58.1523C207.887 57.8711 208.172 57.4883 208.336 57.0039C208.508 56.5117 208.594 55.9648 208.594 55.3633ZM217.734 43V61H214.348V43H217.734ZM227.379 57.4961C227.379 57.2539 227.309 57.0352 227.168 56.8398C227.027 56.6445 226.766 56.4648 226.383 56.3008C226.008 56.1289 225.465 55.9727 224.754 55.832C224.113 55.6914 223.516 55.5156 222.961 55.3047C222.414 55.0859 221.938 54.8242 221.531 54.5195C221.133 54.2148 220.82 53.8555 220.594 53.4414C220.367 53.0195 220.254 52.5391 220.254 52C220.254 51.4688 220.367 50.9688 220.594 50.5C220.828 50.0312 221.16 49.6172 221.59 49.2578C222.027 48.8906 222.559 48.6055 223.184 48.4023C223.816 48.1914 224.527 48.0859 225.316 48.0859C226.418 48.0859 227.363 48.2617 228.152 48.6133C228.949 48.9648 229.559 49.4492 229.98 50.0664C230.41 50.6758 230.625 51.3711 230.625 52.1523H227.25C227.25 51.8242 227.18 51.5312 227.039 51.2734C226.906 51.0078 226.695 50.8008 226.406 50.6523C226.125 50.4961 225.758 50.418 225.305 50.418C224.93 50.418 224.605 50.4844 224.332 50.6172C224.059 50.7422 223.848 50.9141 223.699 51.1328C223.559 51.3438 223.488 51.5781 223.488 51.8359C223.488 52.0312 223.527 52.207 223.605 52.3633C223.691 52.5117 223.828 52.6484 224.016 52.7734C224.203 52.8984 224.445 53.0156 224.742 53.125C225.047 53.2266 225.422 53.3203 225.867 53.4062C226.781 53.5938 227.598 53.8398 228.316 54.1445C229.035 54.4414 229.605 54.8477 230.027 55.3633C230.449 55.8711 230.66 56.5391 230.66 57.3672C230.66 57.9297 230.535 58.4453 230.285 58.9141C230.035 59.3828 229.676 59.793 229.207 60.1445C228.738 60.4883 228.176 60.7578 227.52 60.9531C226.871 61.1406 226.141 61.2344 225.328 61.2344C224.148 61.2344 223.148 61.0234 222.328 60.6016C221.516 60.1797 220.898 59.6445 220.477 58.9961C220.062 58.3398 219.855 57.668 219.855 56.9805H223.055C223.07 57.4414 223.188 57.8125 223.406 58.0938C223.633 58.375 223.918 58.5781 224.262 58.7031C224.613 58.8281 224.992 58.8906 225.398 58.8906C225.836 58.8906 226.199 58.832 226.488 58.7148C226.777 58.5898 226.996 58.4258 227.145 58.2227C227.301 58.0117 227.379 57.7695 227.379 57.4961ZM238.688 61.2344C237.703 61.2344 236.82 61.0781 236.039 60.7656C235.258 60.4453 234.594 60.0039 234.047 59.4414C233.508 58.8789 233.094 58.2266 232.805 57.4844C232.516 56.7344 232.371 55.9375 232.371 55.0938V54.625C232.371 53.6641 232.508 52.7852 232.781 51.9883C233.055 51.1914 233.445 50.5 233.953 49.9141C234.469 49.3281 235.094 48.8789 235.828 48.5664C236.562 48.2461 237.391 48.0859 238.312 48.0859C239.211 48.0859 240.008 48.2344 240.703 48.5312C241.398 48.8281 241.98 49.25 242.449 49.7969C242.926 50.3438 243.285 51 243.527 51.7656C243.77 52.5234 243.891 53.3672 243.891 54.2969V55.7031H233.812V53.4531H240.574V53.1953C240.574 52.7266 240.488 52.3086 240.316 51.9414C240.152 51.5664 239.902 51.2695 239.566 51.0508C239.23 50.832 238.801 50.7227 238.277 50.7227C237.832 50.7227 237.449 50.8203 237.129 51.0156C236.809 51.2109 236.547 51.4844 236.344 51.8359C236.148 52.1875 236 52.6016 235.898 53.0781C235.805 53.5469 235.758 54.0625 235.758 54.625V55.0938C235.758 55.6016 235.828 56.0703 235.969 56.5C236.117 56.9297 236.324 57.3008 236.59 57.6133C236.863 57.9258 237.191 58.168 237.574 58.3398C237.965 58.5117 238.406 58.5977 238.898 58.5977C239.508 58.5977 240.074 58.4805 240.598 58.2461C241.129 58.0039 241.586 57.6406 241.969 57.1562L243.609 58.9375C243.344 59.3203 242.98 59.6875 242.52 60.0391C242.066 60.3906 241.52 60.6797 240.879 60.9062C240.238 61.125 239.508 61.2344 238.688 61.2344Z" fill="#888888"/>
<path d="M109.219 107.422H100.734V101.07H109.219C110.375 101.07 111.312 100.875 112.031 100.484C112.75 100.094 113.273 99.5547 113.602 98.8672C113.945 98.1641 114.117 97.375 114.117 96.5C114.117 95.5625 113.945 94.6953 113.602 93.8984C113.273 93.1016 112.75 92.4609 112.031 91.9766C111.312 91.4766 110.375 91.2266 109.219 91.2266H103.828V119H95.6016V84.875H109.219C111.953 84.875 114.305 85.375 116.273 86.375C118.258 87.375 119.781 88.75 120.844 90.5C121.906 92.2344 122.438 94.2188 122.438 96.4531C122.438 98.6562 121.906 100.578 120.844 102.219C119.781 103.859 118.258 105.141 116.273 106.062C114.305 106.969 111.953 107.422 109.219 107.422ZM134.461 99.9219V119H126.562V93.6406H133.945L134.461 99.9219ZM141.961 93.4531L141.82 100.789C141.508 100.758 141.086 100.719 140.555 100.672C140.023 100.625 139.578 100.602 139.219 100.602C138.297 100.602 137.5 100.711 136.828 100.93C136.172 101.133 135.625 101.445 135.188 101.867C134.766 102.273 134.453 102.789 134.25 103.414C134.062 104.039 133.977 104.766 133.992 105.594L132.562 104.656C132.562 102.953 132.727 101.406 133.055 100.016C133.398 98.6094 133.883 97.3984 134.508 96.3828C135.133 95.3516 135.891 94.5625 136.781 94.0156C137.672 93.4531 138.672 93.1719 139.781 93.1719C140.172 93.1719 140.555 93.1953 140.93 93.2422C141.32 93.2891 141.664 93.3594 141.961 93.4531ZM142.852 106.578V106.086C142.852 104.227 143.117 102.516 143.648 100.953C144.18 99.375 144.961 98.0078 145.992 96.8516C147.023 95.6953 148.297 94.7969 149.812 94.1562C151.328 93.5 153.078 93.1719 155.062 93.1719C157.062 93.1719 158.82 93.5 160.336 94.1562C161.867 94.7969 163.148 95.6953 164.18 96.8516C165.211 98.0078 165.992 99.375 166.523 100.953C167.055 102.516 167.32 104.227 167.32 106.086V106.578C167.32 108.422 167.055 110.133 166.523 111.711C165.992 113.273 165.211 114.641 164.18 115.812C163.148 116.969 161.875 117.867 160.359 118.508C158.844 119.148 157.094 119.469 155.109 119.469C153.125 119.469 151.367 119.148 149.836 118.508C148.305 117.867 147.023 116.969 145.992 115.812C144.961 114.641 144.18 113.273 143.648 111.711C143.117 110.133 142.852 108.422 142.852 106.578ZM150.75 106.086V106.578C150.75 107.531 150.82 108.422 150.961 109.25C151.102 110.078 151.336 110.805 151.664 111.43C151.992 112.039 152.438 112.516 153 112.859C153.562 113.203 154.266 113.375 155.109 113.375C155.938 113.375 156.625 113.203 157.172 112.859C157.734 112.516 158.18 112.039 158.508 111.43C158.836 110.805 159.07 110.078 159.211 109.25C159.352 108.422 159.422 107.531 159.422 106.578V106.086C159.422 105.164 159.352 104.297 159.211 103.484C159.07 102.656 158.836 101.93 158.508 101.305C158.18 100.664 157.734 100.164 157.172 99.8047C156.609 99.4453 155.906 99.2656 155.062 99.2656C154.234 99.2656 153.539 99.4453 152.977 99.8047C152.43 100.164 151.992 100.664 151.664 101.305C151.336 101.93 151.102 102.656 150.961 103.484C150.82 104.297 150.75 105.164 150.75 106.086ZM178.805 99.0078V119H170.906V93.6406H178.312L178.805 99.0078ZM177.844 105.453L176.039 105.5C176.039 103.719 176.25 102.078 176.672 100.578C177.094 99.0781 177.719 97.7734 178.547 96.6641C179.375 95.5547 180.391 94.6953 181.594 94.0859C182.812 93.4766 184.219 93.1719 185.812 93.1719C186.922 93.1719 187.93 93.3438 188.836 93.6875C189.742 94.0156 190.523 94.5391 191.18 95.2578C191.836 95.9609 192.336 96.8828 192.68 98.0234C193.039 99.1484 193.219 100.5 193.219 102.078V119H185.32V103.086C185.32 102.008 185.195 101.195 184.945 100.648C184.711 100.102 184.367 99.7344 183.914 99.5469C183.461 99.3594 182.906 99.2656 182.25 99.2656C181.562 99.2656 180.945 99.4219 180.398 99.7344C179.852 100.047 179.383 100.484 178.992 101.047C178.617 101.594 178.328 102.242 178.125 102.992C177.938 103.742 177.844 104.562 177.844 105.453ZM192.328 105.453L190.125 105.5C190.125 103.719 190.32 102.078 190.711 100.578C191.117 99.0781 191.719 97.7734 192.516 96.6641C193.328 95.5547 194.336 94.6953 195.539 94.0859C196.742 93.4766 198.141 93.1719 199.734 93.1719C200.891 93.1719 201.953 93.3438 202.922 93.6875C203.891 94.0312 204.727 94.5859 205.43 95.3516C206.133 96.1172 206.68 97.1328 207.07 98.3984C207.461 99.6484 207.656 101.195 207.656 103.039V119H199.734V103.039C199.734 101.992 199.609 101.203 199.359 100.672C199.125 100.125 198.781 99.7578 198.328 99.5703C197.875 99.3672 197.336 99.2656 196.711 99.2656C195.961 99.2656 195.312 99.4219 194.766 99.7344C194.219 100.047 193.758 100.484 193.383 101.047C193.023 101.594 192.758 102.242 192.586 102.992C192.414 103.742 192.328 104.562 192.328 105.453ZM220.148 98.5156V128.75H212.25V93.6406H219.609L220.148 98.5156ZM235.711 106.016V106.508C235.711 108.352 235.5 110.062 235.078 111.641C234.656 113.219 234.031 114.594 233.203 115.766C232.375 116.938 231.344 117.852 230.109 118.508C228.891 119.148 227.477 119.469 225.867 119.469C224.352 119.469 223.047 119.133 221.953 118.461C220.859 117.789 219.945 116.859 219.211 115.672C218.477 114.484 217.883 113.125 217.43 111.594C216.977 110.062 216.617 108.445 216.352 106.742V106.109C216.617 104.281 216.977 102.586 217.43 101.023C217.883 99.4453 218.477 98.0703 219.211 96.8984C219.945 95.7266 220.852 94.8125 221.93 94.1562C223.023 93.5 224.328 93.1719 225.844 93.1719C227.453 93.1719 228.867 93.4766 230.086 94.0859C231.32 94.6953 232.352 95.5703 233.18 96.7109C234.023 97.8359 234.656 99.1875 235.078 100.766C235.5 102.344 235.711 104.094 235.711 106.016ZM227.812 106.508V106.016C227.812 105.031 227.742 104.133 227.602 103.32C227.461 102.492 227.234 101.773 226.922 101.164C226.625 100.555 226.227 100.086 225.727 99.7578C225.227 99.4297 224.609 99.2656 223.875 99.2656C223.031 99.2656 222.32 99.3984 221.742 99.6641C221.18 99.9141 220.727 100.305 220.383 100.836C220.055 101.352 219.82 102 219.68 102.781C219.555 103.547 219.5 104.445 219.516 105.477V107.398C219.484 108.586 219.602 109.633 219.867 110.539C220.133 111.43 220.594 112.125 221.25 112.625C221.906 113.125 222.797 113.375 223.922 113.375C224.672 113.375 225.297 113.203 225.797 112.859C226.297 112.5 226.695 112.008 226.992 111.383C227.289 110.742 227.5 110.008 227.625 109.18C227.75 108.352 227.812 107.461 227.812 106.508ZM252.586 93.6406V99.125H237.305V93.6406H252.586ZM240.516 87.3359H248.414V110.727C248.414 111.398 248.492 111.922 248.648 112.297C248.805 112.656 249.07 112.914 249.445 113.07C249.836 113.211 250.352 113.281 250.992 113.281C251.445 113.281 251.82 113.273 252.117 113.258C252.414 113.227 252.695 113.188 252.961 113.141V118.789C252.289 119.008 251.586 119.172 250.852 119.281C250.117 119.406 249.336 119.469 248.508 119.469C246.82 119.469 245.375 119.203 244.172 118.672C242.984 118.141 242.078 117.305 241.453 116.164C240.828 115.023 240.516 113.539 240.516 111.711V87.3359ZM291.539 112.672V119H273.352V112.672H291.539ZM276.281 84.875V119H268.055V84.875H276.281ZM289.195 98.4219V104.539H273.352V98.4219H289.195ZM291.609 84.875V91.2266H273.352V84.875H291.609ZM302.297 99.0547V119H294.398V93.6406H301.805L302.297 99.0547ZM301.359 105.453L299.508 105.5C299.508 103.562 299.742 101.836 300.211 100.32C300.68 98.7891 301.344 97.4922 302.203 96.4297C303.062 95.3672 304.086 94.5625 305.273 94.0156C306.477 93.4531 307.812 93.1719 309.281 93.1719C310.453 93.1719 311.523 93.3438 312.492 93.6875C313.477 94.0312 314.32 94.5859 315.023 95.3516C315.742 96.1172 316.289 97.1328 316.664 98.3984C317.055 99.6484 317.25 101.195 317.25 103.039V119H309.305V103.016C309.305 102 309.164 101.227 308.883 100.695C308.602 100.148 308.195 99.7734 307.664 99.5703C307.133 99.3672 306.484 99.2656 305.719 99.2656C304.906 99.2656 304.219 99.4219 303.656 99.7344C303.094 100.047 302.641 100.484 302.297 101.047C301.969 101.594 301.727 102.242 301.57 102.992C301.43 103.742 301.359 104.562 301.359 105.453ZM337.57 93.6406H344.742V118.016C344.742 120.359 344.203 122.344 343.125 123.969C342.047 125.609 340.539 126.852 338.602 127.695C336.68 128.555 334.43 128.984 331.852 128.984C330.711 128.984 329.547 128.836 328.359 128.539C327.172 128.258 326.062 127.836 325.031 127.273C324 126.711 323.133 126.016 322.43 125.188L325.734 120.547C326.375 121.266 327.18 121.875 328.148 122.375C329.117 122.891 330.258 123.148 331.57 123.148C332.711 123.148 333.664 122.945 334.43 122.539C335.211 122.133 335.805 121.539 336.211 120.758C336.617 119.992 336.82 119.062 336.82 117.969V99.6406L337.57 93.6406ZM320.719 106.625V106.133C320.719 104.211 320.953 102.461 321.422 100.883C321.906 99.2891 322.594 97.9219 323.484 96.7812C324.391 95.625 325.484 94.7344 326.766 94.1094C328.047 93.4844 329.492 93.1719 331.102 93.1719C332.836 93.1719 334.258 93.5078 335.367 94.1797C336.492 94.8359 337.391 95.7578 338.062 96.9453C338.75 98.1328 339.281 99.5234 339.656 101.117C340.047 102.695 340.375 104.398 340.641 106.227V106.812C340.375 108.531 340.008 110.156 339.539 111.688C339.086 113.203 338.492 114.547 337.758 115.719C337.023 116.891 336.102 117.812 334.992 118.484C333.898 119.141 332.586 119.469 331.055 119.469C329.461 119.469 328.023 119.148 326.742 118.508C325.477 117.867 324.391 116.969 323.484 115.812C322.594 114.656 321.906 113.297 321.422 111.734C320.953 110.172 320.719 108.469 320.719 106.625ZM328.617 106.133V106.625C328.617 107.578 328.703 108.461 328.875 109.273C329.062 110.086 329.344 110.805 329.719 111.43C330.094 112.039 330.555 112.516 331.102 112.859C331.664 113.203 332.32 113.375 333.07 113.375C334.211 113.375 335.133 113.133 335.836 112.648C336.539 112.164 337.047 111.477 337.359 110.586C337.672 109.695 337.805 108.648 337.758 107.445V105.594C337.789 104.562 337.719 103.656 337.547 102.875C337.375 102.078 337.102 101.414 336.727 100.883C336.367 100.352 335.883 99.9531 335.273 99.6875C334.68 99.4062 333.961 99.2656 333.117 99.2656C332.383 99.2656 331.734 99.4375 331.172 99.7812C330.609 100.125 330.141 100.609 329.766 101.234C329.391 101.844 329.102 102.57 328.898 103.414C328.711 104.242 328.617 105.148 328.617 106.133ZM357.633 93.6406V119H349.711V93.6406H357.633ZM349.242 87.1016C349.242 85.9766 349.648 85.0547 350.461 84.3359C351.273 83.6172 352.328 83.2578 353.625 83.2578C354.922 83.2578 355.977 83.6172 356.789 84.3359C357.602 85.0547 358.008 85.9766 358.008 87.1016C358.008 88.2266 357.602 89.1484 356.789 89.8672C355.977 90.5859 354.922 90.9453 353.625 90.9453C352.328 90.9453 351.273 90.5859 350.461 89.8672C349.648 89.1484 349.242 88.2266 349.242 87.1016ZM370.266 99.0547V119H362.367V93.6406H369.773L370.266 99.0547ZM369.328 105.453L367.477 105.5C367.477 103.562 367.711 101.836 368.18 100.32C368.648 98.7891 369.312 97.4922 370.172 96.4297C371.031 95.3672 372.055 94.5625 373.242 94.0156C374.445 93.4531 375.781 93.1719 377.25 93.1719C378.422 93.1719 379.492 93.3438 380.461 93.6875C381.445 94.0312 382.289 94.5859 382.992 95.3516C383.711 96.1172 384.258 97.1328 384.633 98.3984C385.023 99.6484 385.219 101.195 385.219 103.039V119H377.273V103.016C377.273 102 377.133 101.227 376.852 100.695C376.57 100.148 376.164 99.7734 375.633 99.5703C375.102 99.3672 374.453 99.2656 373.688 99.2656C372.875 99.2656 372.188 99.4219 371.625 99.7344C371.062 100.047 370.609 100.484 370.266 101.047C369.938 101.594 369.695 102.242 369.539 102.992C369.398 103.742 369.328 104.562 369.328 105.453ZM401.883 119.469C399.82 119.469 397.977 119.148 396.352 118.508C394.727 117.852 393.352 116.953 392.227 115.812C391.117 114.672 390.266 113.359 389.672 111.875C389.094 110.391 388.805 108.82 388.805 107.164V106.273C388.805 104.414 389.062 102.695 389.578 101.117C390.094 99.5234 390.859 98.1328 391.875 96.9453C392.891 95.7578 394.164 94.8359 395.695 94.1797C397.227 93.5078 399.008 93.1719 401.039 93.1719C402.836 93.1719 404.445 93.4609 405.867 94.0391C407.289 94.6172 408.492 95.4453 409.477 96.5234C410.477 97.6016 411.234 98.9062 411.75 100.438C412.281 101.969 412.547 103.688 412.547 105.594V108.805H391.828V103.859H404.836V103.25C404.852 102.406 404.703 101.688 404.391 101.094C404.094 100.5 403.656 100.047 403.078 99.7344C402.5 99.4219 401.797 99.2656 400.969 99.2656C400.109 99.2656 399.398 99.4531 398.836 99.8281C398.289 100.203 397.859 100.719 397.547 101.375C397.25 102.016 397.039 102.758 396.914 103.602C396.789 104.445 396.727 105.336 396.727 106.273V107.164C396.727 108.102 396.852 108.953 397.102 109.719C397.367 110.484 397.742 111.141 398.227 111.688C398.727 112.219 399.32 112.633 400.008 112.93C400.711 113.227 401.508 113.375 402.398 113.375C403.477 113.375 404.539 113.172 405.586 112.766C406.633 112.359 407.531 111.688 408.281 110.75L411.867 115.016C411.352 115.75 410.617 116.461 409.664 117.148C408.727 117.836 407.602 118.398 406.289 118.836C404.977 119.258 403.508 119.469 401.883 119.469ZM428.039 119.469C425.977 119.469 424.133 119.148 422.508 118.508C420.883 117.852 419.508 116.953 418.383 115.812C417.273 114.672 416.422 113.359 415.828 111.875C415.25 110.391 414.961 108.82 414.961 107.164V106.273C414.961 104.414 415.219 102.695 415.734 101.117C416.25 99.5234 417.016 98.1328 418.031 96.9453C419.047 95.7578 420.32 94.8359 421.852 94.1797C423.383 93.5078 425.164 93.1719 427.195 93.1719C428.992 93.1719 430.602 93.4609 432.023 94.0391C433.445 94.6172 434.648 95.4453 435.633 96.5234C436.633 97.6016 437.391 98.9062 437.906 100.438C438.438 101.969 438.703 103.688 438.703 105.594V108.805H417.984V103.859H430.992V103.25C431.008 102.406 430.859 101.688 430.547 101.094C430.25 100.5 429.812 100.047 429.234 99.7344C428.656 99.4219 427.953 99.2656 427.125 99.2656C426.266 99.2656 425.555 99.4531 424.992 99.8281C424.445 100.203 424.016 100.719 423.703 101.375C423.406 102.016 423.195 102.758 423.07 103.602C422.945 104.445 422.883 105.336 422.883 106.273V107.164C422.883 108.102 423.008 108.953 423.258 109.719C423.523 110.484 423.898 111.141 424.383 111.688C424.883 112.219 425.477 112.633 426.164 112.93C426.867 113.227 427.664 113.375 428.555 113.375C429.633 113.375 430.695 113.172 431.742 112.766C432.789 112.359 433.688 111.688 434.438 110.75L438.023 115.016C437.508 115.75 436.773 116.461 435.82 117.148C434.883 117.836 433.758 118.398 432.445 118.836C431.133 119.258 429.664 119.469 428.039 119.469ZM449.883 99.9219V119H441.984V93.6406H449.367L449.883 99.9219ZM457.383 93.4531L457.242 100.789C456.93 100.758 456.508 100.719 455.977 100.672C455.445 100.625 455 100.602 454.641 100.602C453.719 100.602 452.922 100.711 452.25 100.93C451.594 101.133 451.047 101.445 450.609 101.867C450.188 102.273 449.875 102.789 449.672 103.414C449.484 104.039 449.398 104.766 449.414 105.594L447.984 104.656C447.984 102.953 448.148 101.406 448.477 100.016C448.82 98.6094 449.305 97.3984 449.93 96.3828C450.555 95.3516 451.312 94.5625 452.203 94.0156C453.094 93.4531 454.094 93.1719 455.203 93.1719C455.594 93.1719 455.977 93.1953 456.352 93.2422C456.742 93.2891 457.086 93.3594 457.383 93.4531ZM468.445 93.6406V119H460.523V93.6406H468.445ZM460.055 87.1016C460.055 85.9766 460.461 85.0547 461.273 84.3359C462.086 83.6172 463.141 83.2578 464.438 83.2578C465.734 83.2578 466.789 83.6172 467.602 84.3359C468.414 85.0547 468.82 85.9766 468.82 87.1016C468.82 88.2266 468.414 89.1484 467.602 89.8672C466.789 90.5859 465.734 90.9453 464.438 90.9453C463.141 90.9453 462.086 90.5859 461.273 89.8672C460.461 89.1484 460.055 88.2266 460.055 87.1016ZM481.078 99.0547V119H473.18V93.6406H480.586L481.078 99.0547ZM480.141 105.453L478.289 105.5C478.289 103.562 478.523 101.836 478.992 100.32C479.461 98.7891 480.125 97.4922 480.984 96.4297C481.844 95.3672 482.867 94.5625 484.055 94.0156C485.258 93.4531 486.594 93.1719 488.062 93.1719C489.234 93.1719 490.305 93.3438 491.273 93.6875C492.258 94.0312 493.102 94.5859 493.805 95.3516C494.523 96.1172 495.07 97.1328 495.445 98.3984C495.836 99.6484 496.031 101.195 496.031 103.039V119H488.086V103.016C488.086 102 487.945 101.227 487.664 100.695C487.383 100.148 486.977 99.7734 486.445 99.5703C485.914 99.3672 485.266 99.2656 484.5 99.2656C483.688 99.2656 483 99.4219 482.438 99.7344C481.875 100.047 481.422 100.484 481.078 101.047C480.75 101.594 480.508 102.242 480.352 102.992C480.211 103.742 480.141 104.562 480.141 105.453ZM516.352 93.6406H523.523V118.016C523.523 120.359 522.984 122.344 521.906 123.969C520.828 125.609 519.32 126.852 517.383 127.695C515.461 128.555 513.211 128.984 510.633 128.984C509.492 128.984 508.328 128.836 507.141 128.539C505.953 128.258 504.844 127.836 503.812 127.273C502.781 126.711 501.914 126.016 501.211 125.188L504.516 120.547C505.156 121.266 505.961 121.875 506.93 122.375C507.898 122.891 509.039 123.148 510.352 123.148C511.492 123.148 512.445 122.945 513.211 122.539C513.992 122.133 514.586 121.539 514.992 120.758C515.398 119.992 515.602 119.062 515.602 117.969V99.6406L516.352 93.6406ZM499.5 106.625V106.133C499.5 104.211 499.734 102.461 500.203 100.883C500.688 99.2891 501.375 97.9219 502.266 96.7812C503.172 95.625 504.266 94.7344 505.547 94.1094C506.828 93.4844 508.273 93.1719 509.883 93.1719C511.617 93.1719 513.039 93.5078 514.148 94.1797C515.273 94.8359 516.172 95.7578 516.844 96.9453C517.531 98.1328 518.062 99.5234 518.438 101.117C518.828 102.695 519.156 104.398 519.422 106.227V106.812C519.156 108.531 518.789 110.156 518.32 111.688C517.867 113.203 517.273 114.547 516.539 115.719C515.805 116.891 514.883 117.812 513.773 118.484C512.68 119.141 511.367 119.469 509.836 119.469C508.242 119.469 506.805 119.148 505.523 118.508C504.258 117.867 503.172 116.969 502.266 115.812C501.375 114.656 500.688 113.297 500.203 111.734C499.734 110.172 499.5 108.469 499.5 106.625ZM507.398 106.133V106.625C507.398 107.578 507.484 108.461 507.656 109.273C507.844 110.086 508.125 110.805 508.5 111.43C508.875 112.039 509.336 112.516 509.883 112.859C510.445 113.203 511.102 113.375 511.852 113.375C512.992 113.375 513.914 113.133 514.617 112.648C515.32 112.164 515.828 111.477 516.141 110.586C516.453 109.695 516.586 108.648 516.539 107.445V105.594C516.57 104.562 516.5 103.656 516.328 102.875C516.156 102.078 515.883 101.414 515.508 100.883C515.148 100.352 514.664 99.9531 514.055 99.6875C513.461 99.4062 512.742 99.2656 511.898 99.2656C511.164 99.2656 510.516 99.4375 509.953 99.7812C509.391 100.125 508.922 100.609 508.547 101.234C508.172 101.844 507.883 102.57 507.68 103.414C507.492 104.242 507.398 105.148 507.398 106.133Z" fill="black"/>
<path d="M1134 0H1348C1356.28 0 1363 6.71573 1363 15V148C1363 156.284 1356.28 163 1348 163H1134V0Z" fill="#8962F3"/>
<mask id="path-5-outside-1_3_82" maskUnits="userSpaceOnUse" x="1212.5" y="43.5" width="72" height="76" fill="black">
<rect fill="white" x="1212.5" y="43.5" width="72" height="76"/>
<path d="M1257.78 110.795L1258.17 117.033C1258.2 117.55 1257.82 118.005 1257.3 118.082C1255.41 118.359 1253.48 118.5 1251.56 118.5C1249.65 118.5 1247.72 118.359 1245.83 118.082C1245.3 118.005 1244.93 117.55 1244.96 117.033L1245.29 111.677C1241.26 110.891 1237.48 109.371 1234.05 107.148L1230.39 111.163C1230.04 111.55 1229.44 111.612 1229.01 111.305C1225.91 109.088 1223.19 106.436 1220.9 103.423C1220.59 103.006 1220.65 102.425 1221.05 102.081L1225.18 98.5235C1222.89 95.1861 1221.33 91.5191 1220.52 87.5987L1215.01 87.921C1214.48 87.9525 1214.01 87.5844 1213.93 87.0723C1213.64 85.2408 1213.5 83.3658 1213.5 81.4989C1213.5 79.6323 1213.64 77.7573 1213.93 75.9255C1214.01 75.4134 1214.48 75.037 1215.01 75.0768L1220.52 75.3991C1221.33 71.48 1222.89 67.8127 1225.18 64.4753L1221.05 60.9166C1220.65 60.5732 1220.59 59.9915 1220.9 59.5751C1223.18 56.565 1225.91 53.9132 1229.01 51.6928C1229.44 51.3858 1230.04 51.448 1230.39 51.8344L1234.05 55.8498C1237.51 53.619 1241.42 52.0541 1245.48 51.2839L1245.04 45.9743C1245 45.4495 1245.38 44.9818 1245.92 44.9043C1249.64 44.3652 1253.49 44.3652 1257.21 44.9043C1257.75 44.9818 1258.13 45.4496 1258.09 45.9743L1257.57 52.1893C1257.52 52.7401 1257.02 53.1503 1256.46 53.105C1255.89 53.0601 1255.47 52.5776 1255.52 52.0273L1255.96 46.7572C1253.05 46.4128 1250.08 46.4128 1247.17 46.7572L1247.61 52.0268C1247.66 52.546 1247.28 53.0109 1246.75 53.0949C1242.36 53.7915 1238.12 55.4843 1234.48 57.9899C1234.05 58.2849 1233.46 58.2181 1233.11 57.8373L1229.48 53.8537C1227.1 55.6511 1224.97 57.7247 1223.12 60.034L1227.22 63.565C1227.61 63.9035 1227.68 64.4749 1227.38 64.8912C1224.81 68.4236 1223.12 72.3693 1222.38 76.6188C1222.29 77.1218 1221.82 77.4795 1221.3 77.4485L1215.84 77.1288C1215.65 78.5723 1215.56 80.0384 1215.56 81.499C1215.56 82.9599 1215.65 84.4259 1215.84 85.8692L1221.3 85.5495C1221.82 85.5157 1222.29 85.8767 1222.38 86.3793C1223.12 90.6301 1224.81 94.5761 1227.38 98.1078C1227.68 98.5242 1227.61 99.0954 1227.22 99.434L1223.12 102.964C1224.97 105.276 1227.11 107.349 1229.48 109.144L1233.11 105.161C1233.46 104.779 1234.05 104.713 1234.48 105.008C1238.11 107.508 1242.17 109.143 1246.54 109.869C1247.06 109.955 1247.43 110.406 1247.4 110.915L1247.07 116.229C1250.04 116.589 1253.09 116.589 1256.06 116.229L1255.73 110.915C1255.7 110.363 1256.13 109.89 1256.7 109.857C1257.26 109.827 1257.75 110.244 1257.78 110.795ZM1279.87 67.5195C1281.52 67.5195 1282.86 68.8234 1282.86 70.4259C1282.86 72.0285 1281.52 73.3323 1279.87 73.3323C1279.49 73.3323 1279.13 73.2564 1278.8 73.131L1276 75.947C1275.8 76.142 1275.54 76.2524 1275.26 76.2524H1260.97C1260.4 76.2524 1259.94 75.8048 1259.94 75.2524C1259.94 74.7 1260.4 74.2524 1260.97 74.2524H1274.82L1277.25 71.8052C1277.02 71.3928 1276.88 70.9277 1276.88 70.4261C1276.88 68.8232 1278.22 67.5195 1279.87 67.5195ZM1278.93 70.4259C1278.93 70.9256 1279.35 71.3321 1279.87 71.3321C1280.38 71.3321 1280.8 70.9256 1280.8 70.4259C1280.8 69.9263 1280.38 69.5197 1279.87 69.5197C1279.35 69.5196 1278.93 69.9261 1278.93 70.4259ZM1268.7 64.8892L1272.51 59.5583C1272.12 59.0691 1271.89 58.4651 1271.89 57.8029C1271.89 56.2003 1273.23 54.8965 1274.87 54.8965C1276.52 54.8965 1277.86 56.2003 1277.86 57.8029C1277.86 59.4054 1276.52 60.7092 1274.87 60.7092C1274.66 60.7092 1274.45 60.6835 1274.24 60.6403L1270.08 66.4604C1269.89 66.729 1269.57 66.8895 1269.23 66.8895H1257.92C1257.35 66.8895 1256.89 66.4419 1256.89 65.8895C1256.89 65.3371 1257.35 64.8895 1257.92 64.8895H1268.7V64.8892ZM1273.94 57.8029C1273.94 58.3025 1274.36 58.7091 1274.87 58.7091C1275.39 58.7091 1275.81 58.3025 1275.81 57.8029C1275.81 57.3032 1275.39 56.8967 1274.87 56.8967C1274.36 56.8965 1273.94 57.3031 1273.94 57.8029ZM1277.62 105.196C1277.62 106.798 1276.28 108.102 1274.63 108.102C1272.98 108.102 1271.64 106.798 1271.64 105.196C1271.64 104.412 1271.96 103.703 1272.48 103.179L1268.69 97.8852H1257.92C1257.35 97.8852 1256.89 97.4376 1256.89 96.8852C1256.89 96.3328 1257.35 95.8852 1257.92 95.8852H1269.23C1269.57 95.8852 1269.89 96.0456 1270.08 96.3143L1274.37 102.315C1274.46 102.307 1274.54 102.289 1274.63 102.289C1276.28 102.289 1277.62 103.593 1277.62 105.196ZM1275.56 105.196C1275.56 104.696 1275.14 104.289 1274.63 104.289C1274.11 104.289 1273.69 104.696 1273.69 105.196C1273.69 105.695 1274.11 106.102 1274.63 106.102C1275.14 106.102 1275.56 105.695 1275.56 105.196ZM1282.61 92.8506C1282.61 94.4532 1281.27 95.757 1279.62 95.757C1277.97 95.757 1276.63 94.4532 1276.63 92.8506C1276.63 92.2267 1276.84 91.6518 1277.18 91.1777L1274.82 88.8004H1260.97C1260.4 88.8004 1259.94 88.3528 1259.94 87.8004C1259.94 87.248 1260.4 86.8004 1260.97 86.8004H1275.26C1275.54 86.8004 1275.8 86.9109 1276 87.1058L1278.91 90.0363C1279.14 89.9817 1279.37 89.9444 1279.62 89.9444C1281.27 89.9443 1282.61 91.2479 1282.61 92.8506ZM1280.55 92.8506C1280.55 92.351 1280.13 91.9444 1279.62 91.9444C1279.11 91.9444 1278.69 92.351 1278.69 92.8506C1278.69 93.3503 1279.11 93.7569 1279.62 93.7569C1280.13 93.7569 1280.55 93.3503 1280.55 92.8506ZM1283.5 81.5261C1283.5 83.1286 1282.16 84.4324 1280.51 84.4324C1279.22 84.4324 1278.14 83.6352 1277.71 82.5258H1255.16V100.204C1255.16 103.826 1252.13 106.773 1248.41 106.773C1245.68 106.773 1243.27 105.218 1242.21 102.835C1242.17 102.836 1242.13 102.837 1242.08 102.837C1238.36 102.837 1235.33 99.8896 1235.33 96.2674C1235.33 96.0939 1235.33 95.9203 1235.35 95.7475C1233.74 95.4353 1232.22 94.6326 1230.98 93.4249C1229.39 91.8756 1228.51 89.8161 1228.51 87.6253C1228.51 85.4345 1229.39 83.3749 1230.98 81.826C1231.1 81.7098 1231.23 81.6079 1231.36 81.4992C1231.23 81.3903 1231.1 81.2884 1230.98 81.1724C1229.39 79.6232 1228.51 77.5636 1228.51 75.3731C1228.51 73.1823 1229.39 71.1227 1230.98 69.5735C1232.22 68.3658 1233.74 67.563 1235.35 67.2509C1235.33 67.078 1235.33 66.9046 1235.33 66.731C1235.33 63.1085 1238.36 60.1615 1242.08 60.1615C1242.13 60.1615 1242.17 60.1618 1242.21 60.1628C1243.27 57.7799 1245.68 56.2252 1248.41 56.2252C1252.13 56.2252 1255.16 59.1721 1255.16 62.7944V80.5259H1277.71C1278.14 79.4168 1279.22 78.62 1280.51 78.62C1282.16 78.6198 1283.5 79.9235 1283.5 81.5261ZM1232.44 79.7581C1232.72 80.0356 1233.05 80.2792 1233.39 80.499H1253.11V62.7941C1253.11 60.2745 1251 58.225 1248.41 58.225C1246.68 58.225 1245.14 59.1203 1244.32 60.5297C1245.15 60.813 1245.92 61.2544 1246.59 61.8364C1246.6 61.8432 1246.6 61.8529 1246.61 61.8598C1246.99 61.6858 1247.42 61.5815 1247.87 61.5815C1249.51 61.5815 1250.86 62.8853 1250.86 64.4874C1250.86 66.09 1249.51 67.3938 1247.87 67.3938C1246.22 67.3938 1244.88 66.09 1244.88 64.4874C1244.88 64.0541 1244.98 63.6465 1245.16 63.2768C1244.3 62.5582 1243.22 62.1612 1242.08 62.1612C1239.49 62.1612 1237.38 64.2111 1237.38 66.7307C1237.38 66.8749 1237.4 67.0183 1237.41 67.1615C1238.63 67.284 1239.8 67.6579 1240.85 68.27C1241.31 67.9875 1241.85 67.8176 1242.43 67.8176C1244.08 67.8176 1245.42 69.1214 1245.42 70.7239C1245.42 72.3262 1244.08 73.6299 1242.43 73.6299C1240.78 73.6299 1239.44 72.3261 1239.44 70.7239C1239.44 70.43 1239.5 70.1516 1239.58 69.8839C1238.66 69.388 1237.63 69.1172 1236.55 69.1139C1235.06 69.1935 1233.6 69.857 1232.44 70.9873C1231.23 72.1588 1230.57 73.7162 1230.57 75.3728C1230.57 77.0293 1231.23 78.5866 1232.44 79.7581ZM1241.5 70.7241C1241.5 71.2237 1241.92 71.63 1242.43 71.63C1242.95 71.63 1243.36 71.2237 1243.36 70.7241C1243.36 70.2244 1242.95 69.8179 1242.43 69.8179C1241.92 69.8177 1241.5 70.2243 1241.5 70.7241ZM1247.87 65.3938C1248.38 65.3938 1248.8 64.9872 1248.8 64.4876C1248.8 63.9879 1248.38 63.5816 1247.87 63.5816C1247.35 63.5816 1246.93 63.9879 1246.93 64.4876C1246.93 64.9872 1247.35 65.3938 1247.87 65.3938ZM1253.11 100.204V82.499H1233.37C1233.03 82.7166 1232.72 82.9651 1232.44 83.2399C1231.23 84.4112 1230.57 85.9685 1230.57 87.6251C1230.57 89.2817 1231.23 90.8391 1232.44 92.0106C1233.6 93.1409 1235.06 93.8044 1236.55 93.884C1237.61 93.8807 1238.63 93.62 1239.54 93.1388C1239.48 92.9112 1239.44 92.6768 1239.44 92.4315C1239.44 90.8289 1240.78 89.5251 1242.43 89.5251C1244.08 89.5251 1245.42 90.8289 1245.42 92.4315C1245.42 94.0341 1244.08 95.3379 1242.43 95.3379C1241.79 95.3379 1241.2 95.1364 1240.71 94.8008C1239.7 95.3682 1238.58 95.7192 1237.41 95.8365C1237.4 95.9797 1237.38 96.1231 1237.38 96.2674C1237.38 98.787 1239.49 100.836 1242.08 100.836C1243.19 100.836 1244.26 100.455 1245.1 99.7652C1244.96 99.4261 1244.88 99.0564 1244.88 98.6677C1244.88 97.0652 1246.22 95.7614 1247.87 95.7614C1249.51 95.7614 1250.86 97.0652 1250.86 98.6677C1250.86 100.27 1249.51 101.574 1247.87 101.574C1247.37 101.574 1246.91 101.445 1246.5 101.236C1245.85 101.779 1245.11 102.198 1244.32 102.468C1245.14 103.878 1246.68 104.773 1248.41 104.773C1251 104.773 1253.11 102.724 1253.11 100.204ZM1247.87 99.5741C1248.38 99.5741 1248.8 99.1675 1248.8 98.6679C1248.8 98.1682 1248.38 97.7617 1247.87 97.7617C1247.35 97.7617 1246.93 98.1682 1246.93 98.6679C1246.93 99.1675 1247.35 99.5741 1247.87 99.5741ZM1242.43 93.3379C1242.95 93.3379 1243.36 92.9313 1243.36 92.4316C1243.36 91.932 1242.95 91.5254 1242.43 91.5254C1241.92 91.5254 1241.5 91.932 1241.5 92.4316C1241.5 92.5993 1241.55 92.7544 1241.63 92.8892C1241.65 92.9087 1241.67 92.9252 1241.68 92.9463C1241.7 92.9687 1241.71 92.9933 1241.73 93.0166C1241.9 93.2114 1242.15 93.3379 1242.43 93.3379ZM1281.44 81.5261C1281.44 81.0264 1281.02 80.6198 1280.51 80.6198C1280 80.6198 1279.58 81.0264 1279.58 81.5261C1279.58 82.0257 1280 82.4323 1280.51 82.4323C1281.02 82.4323 1281.44 82.0257 1281.44 81.5261Z"/>
</mask>
<path d="M1257.78 110.795L1258.17 117.033C1258.2 117.55 1257.82 118.005 1257.3 118.082C1255.41 118.359 1253.48 118.5 1251.56 118.5C1249.65 118.5 1247.72 118.359 1245.83 118.082C1245.3 118.005 1244.93 117.55 1244.96 117.033L1245.29 111.677C1241.26 110.891 1237.48 109.371 1234.05 107.148L1230.39 111.163C1230.04 111.55 1229.44 111.612 1229.01 111.305C1225.91 109.088 1223.19 106.436 1220.9 103.423C1220.59 103.006 1220.65 102.425 1221.05 102.081L1225.18 98.5235C1222.89 95.1861 1221.33 91.5191 1220.52 87.5987L1215.01 87.921C1214.48 87.9525 1214.01 87.5844 1213.93 87.0723C1213.64 85.2408 1213.5 83.3658 1213.5 81.4989C1213.5 79.6323 1213.64 77.7573 1213.93 75.9255C1214.01 75.4134 1214.48 75.037 1215.01 75.0768L1220.52 75.3991C1221.33 71.48 1222.89 67.8127 1225.18 64.4753L1221.05 60.9166C1220.65 60.5732 1220.59 59.9915 1220.9 59.5751C1223.18 56.565 1225.91 53.9132 1229.01 51.6928C1229.44 51.3858 1230.04 51.448 1230.39 51.8344L1234.05 55.8498C1237.51 53.619 1241.42 52.0541 1245.48 51.2839L1245.04 45.9743C1245 45.4495 1245.38 44.9818 1245.92 44.9043C1249.64 44.3652 1253.49 44.3652 1257.21 44.9043C1257.75 44.9818 1258.13 45.4496 1258.09 45.9743L1257.57 52.1893C1257.52 52.7401 1257.02 53.1503 1256.46 53.105C1255.89 53.0601 1255.47 52.5776 1255.52 52.0273L1255.96 46.7572C1253.05 46.4128 1250.08 46.4128 1247.17 46.7572L1247.61 52.0268C1247.66 52.546 1247.28 53.0109 1246.75 53.0949C1242.36 53.7915 1238.12 55.4843 1234.48 57.9899C1234.05 58.2849 1233.46 58.2181 1233.11 57.8373L1229.48 53.8537C1227.1 55.6511 1224.97 57.7247 1223.12 60.034L1227.22 63.565C1227.61 63.9035 1227.68 64.4749 1227.38 64.8912C1224.81 68.4236 1223.12 72.3693 1222.38 76.6188C1222.29 77.1218 1221.82 77.4795 1221.3 77.4485L1215.84 77.1288C1215.65 78.5723 1215.56 80.0384 1215.56 81.499C1215.56 82.9599 1215.65 84.4259 1215.84 85.8692L1221.3 85.5495C1221.82 85.5157 1222.29 85.8767 1222.38 86.3793C1223.12 90.6301 1224.81 94.5761 1227.38 98.1078C1227.68 98.5242 1227.61 99.0954 1227.22 99.434L1223.12 102.964C1224.97 105.276 1227.11 107.349 1229.48 109.144L1233.11 105.161C1233.46 104.779 1234.05 104.713 1234.48 105.008C1238.11 107.508 1242.17 109.143 1246.54 109.869C1247.06 109.955 1247.43 110.406 1247.4 110.915L1247.07 116.229C1250.04 116.589 1253.09 116.589 1256.06 116.229L1255.73 110.915C1255.7 110.363 1256.13 109.89 1256.7 109.857C1257.26 109.827 1257.75 110.244 1257.78 110.795ZM1279.87 67.5195C1281.52 67.5195 1282.86 68.8234 1282.86 70.4259C1282.86 72.0285 1281.52 73.3323 1279.87 73.3323C1279.49 73.3323 1279.13 73.2564 1278.8 73.131L1276 75.947C1275.8 76.142 1275.54 76.2524 1275.26 76.2524H1260.97C1260.4 76.2524 1259.94 75.8048 1259.94 75.2524C1259.94 74.7 1260.4 74.2524 1260.97 74.2524H1274.82L1277.25 71.8052C1277.02 71.3928 1276.88 70.9277 1276.88 70.4261C1276.88 68.8232 1278.22 67.5195 1279.87 67.5195ZM1278.93 70.4259C1278.93 70.9256 1279.35 71.3321 1279.87 71.3321C1280.38 71.3321 1280.8 70.9256 1280.8 70.4259C1280.8 69.9263 1280.38 69.5197 1279.87 69.5197C1279.35 69.5196 1278.93 69.9261 1278.93 70.4259ZM1268.7 64.8892L1272.51 59.5583C1272.12 59.0691 1271.89 58.4651 1271.89 57.8029C1271.89 56.2003 1273.23 54.8965 1274.87 54.8965C1276.52 54.8965 1277.86 56.2003 1277.86 57.8029C1277.86 59.4054 1276.52 60.7092 1274.87 60.7092C1274.66 60.7092 1274.45 60.6835 1274.24 60.6403L1270.08 66.4604C1269.89 66.729 1269.57 66.8895 1269.23 66.8895H1257.92C1257.35 66.8895 1256.89 66.4419 1256.89 65.8895C1256.89 65.3371 1257.35 64.8895 1257.92 64.8895H1268.7V64.8892ZM1273.94 57.8029C1273.94 58.3025 1274.36 58.7091 1274.87 58.7091C1275.39 58.7091 1275.81 58.3025 1275.81 57.8029C1275.81 57.3032 1275.39 56.8967 1274.87 56.8967C1274.36 56.8965 1273.94 57.3031 1273.94 57.8029ZM1277.62 105.196C1277.62 106.798 1276.28 108.102 1274.63 108.102C1272.98 108.102 1271.64 106.798 1271.64 105.196C1271.64 104.412 1271.96 103.703 1272.48 103.179L1268.69 97.8852H1257.92C1257.35 97.8852 1256.89 97.4376 1256.89 96.8852C1256.89 96.3328 1257.35 95.8852 1257.92 95.8852H1269.23C1269.57 95.8852 1269.89 96.0456 1270.08 96.3143L1274.37 102.315C1274.46 102.307 1274.54 102.289 1274.63 102.289C1276.28 102.289 1277.62 103.593 1277.62 105.196ZM1275.56 105.196C1275.56 104.696 1275.14 104.289 1274.63 104.289C1274.11 104.289 1273.69 104.696 1273.69 105.196C1273.69 105.695 1274.11 106.102 1274.63 106.102C1275.14 106.102 1275.56 105.695 1275.56 105.196ZM1282.61 92.8506C1282.61 94.4532 1281.27 95.757 1279.62 95.757C1277.97 95.757 1276.63 94.4532 1276.63 92.8506C1276.63 92.2267 1276.84 91.6518 1277.18 91.1777L1274.82 88.8004H1260.97C1260.4 88.8004 1259.94 88.3528 1259.94 87.8004C1259.94 87.248 1260.4 86.8004 1260.97 86.8004H1275.26C1275.54 86.8004 1275.8 86.9109 1276 87.1058L1278.91 90.0363C1279.14 89.9817 1279.37 89.9444 1279.62 89.9444C1281.27 89.9443 1282.61 91.2479 1282.61 92.8506ZM1280.55 92.8506C1280.55 92.351 1280.13 91.9444 1279.62 91.9444C1279.11 91.9444 1278.69 92.351 1278.69 92.8506C1278.69 93.3503 1279.11 93.7569 1279.62 93.7569C1280.13 93.7569 1280.55 93.3503 1280.55 92.8506ZM1283.5 81.5261C1283.5 83.1286 1282.16 84.4324 1280.51 84.4324C1279.22 84.4324 1278.14 83.6352 1277.71 82.5258H1255.16V100.204C1255.16 103.826 1252.13 106.773 1248.41 106.773C1245.68 106.773 1243.27 105.218 1242.21 102.835C1242.17 102.836 1242.13 102.837 1242.08 102.837C1238.36 102.837 1235.33 99.8896 1235.33 96.2674C1235.33 96.0939 1235.33 95.9203 1235.35 95.7475C1233.74 95.4353 1232.22 94.6326 1230.98 93.4249C1229.39 91.8756 1228.51 89.8161 1228.51 87.6253C1228.51 85.4345 1229.39 83.3749 1230.98 81.826C1231.1 81.7098 1231.23 81.6079 1231.36 81.4992C1231.23 81.3903 1231.1 81.2884 1230.98 81.1724C1229.39 79.6232 1228.51 77.5636 1228.51 75.3731C1228.51 73.1823 1229.39 71.1227 1230.98 69.5735C1232.22 68.3658 1233.74 67.563 1235.35 67.2509C1235.33 67.078 1235.33 66.9046 1235.33 66.731C1235.33 63.1085 1238.36 60.1615 1242.08 60.1615C1242.13 60.1615 1242.17 60.1618 1242.21 60.1628C1243.27 57.7799 1245.68 56.2252 1248.41 56.2252C1252.13 56.2252 1255.16 59.1721 1255.16 62.7944V80.5259H1277.71C1278.14 79.4168 1279.22 78.62 1280.51 78.62C1282.16 78.6198 1283.5 79.9235 1283.5 81.5261ZM1232.44 79.7581C1232.72 80.0356 1233.05 80.2792 1233.39 80.499H1253.11V62.7941C1253.11 60.2745 1251 58.225 1248.41 58.225C1246.68 58.225 1245.14 59.1203 1244.32 60.5297C1245.15 60.813 1245.92 61.2544 1246.59 61.8364C1246.6 61.8432 1246.6 61.8529 1246.61 61.8598C1246.99 61.6858 1247.42 61.5815 1247.87 61.5815C1249.51 61.5815 1250.86 62.8853 1250.86 64.4874C1250.86 66.09 1249.51 67.3938 1247.87 67.3938C1246.22 67.3938 1244.88 66.09 1244.88 64.4874C1244.88 64.0541 1244.98 63.6465 1245.16 63.2768C1244.3 62.5582 1243.22 62.1612 1242.08 62.1612C1239.49 62.1612 1237.38 64.2111 1237.38 66.7307C1237.38 66.8749 1237.4 67.0183 1237.41 67.1615C1238.63 67.284 1239.8 67.6579 1240.85 68.27C1241.31 67.9875 1241.85 67.8176 1242.43 67.8176C1244.08 67.8176 1245.42 69.1214 1245.42 70.7239C1245.42 72.3262 1244.08 73.6299 1242.43 73.6299C1240.78 73.6299 1239.44 72.3261 1239.44 70.7239C1239.44 70.43 1239.5 70.1516 1239.58 69.8839C1238.66 69.388 1237.63 69.1172 1236.55 69.1139C1235.06 69.1935 1233.6 69.857 1232.44 70.9873C1231.23 72.1588 1230.57 73.7162 1230.57 75.3728C1230.57 77.0293 1231.23 78.5866 1232.44 79.7581ZM1241.5 70.7241C1241.5 71.2237 1241.92 71.63 1242.43 71.63C1242.95 71.63 1243.36 71.2237 1243.36 70.7241C1243.36 70.2244 1242.95 69.8179 1242.43 69.8179C1241.92 69.8177 1241.5 70.2243 1241.5 70.7241ZM1247.87 65.3938C1248.38 65.3938 1248.8 64.9872 1248.8 64.4876C1248.8 63.9879 1248.38 63.5816 1247.87 63.5816C1247.35 63.5816 1246.93 63.9879 1246.93 64.4876C1246.93 64.9872 1247.35 65.3938 1247.87 65.3938ZM1253.11 100.204V82.499H1233.37C1233.03 82.7166 1232.72 82.9651 1232.44 83.2399C1231.23 84.4112 1230.57 85.9685 1230.57 87.6251C1230.57 89.2817 1231.23 90.8391 1232.44 92.0106C1233.6 93.1409 1235.06 93.8044 1236.55 93.884C1237.61 93.8807 1238.63 93.62 1239.54 93.1388C1239.48 92.9112 1239.44 92.6768 1239.44 92.4315C1239.44 90.8289 1240.78 89.5251 1242.43 89.5251C1244.08 89.5251 1245.42 90.8289 1245.42 92.4315C1245.42 94.0341 1244.08 95.3379 1242.43 95.3379C1241.79 95.3379 1241.2 95.1364 1240.71 94.8008C1239.7 95.3682 1238.58 95.7192 1237.41 95.8365C1237.4 95.9797 1237.38 96.1231 1237.38 96.2674C1237.38 98.787 1239.49 100.836 1242.08 100.836C1243.19 100.836 1244.26 100.455 1245.1 99.7652C1244.96 99.4261 1244.88 99.0564 1244.88 98.6677C1244.88 97.0652 1246.22 95.7614 1247.87 95.7614C1249.51 95.7614 1250.86 97.0652 1250.86 98.6677C1250.86 100.27 1249.51 101.574 1247.87 101.574C1247.37 101.574 1246.91 101.445 1246.5 101.236C1245.85 101.779 1245.11 102.198 1244.32 102.468C1245.14 103.878 1246.68 104.773 1248.41 104.773C1251 104.773 1253.11 102.724 1253.11 100.204ZM1247.87 99.5741C1248.38 99.5741 1248.8 99.1675 1248.8 98.6679C1248.8 98.1682 1248.38 97.7617 1247.87 97.7617C1247.35 97.7617 1246.93 98.1682 1246.93 98.6679C1246.93 99.1675 1247.35 99.5741 1247.87 99.5741ZM1242.43 93.3379C1242.95 93.3379 1243.36 92.9313 1243.36 92.4316C1243.36 91.932 1242.95 91.5254 1242.43 91.5254C1241.92 91.5254 1241.5 91.932 1241.5 92.4316C1241.5 92.5993 1241.55 92.7544 1241.63 92.8892C1241.65 92.9087 1241.67 92.9252 1241.68 92.9463C1241.7 92.9687 1241.71 92.9933 1241.73 93.0166C1241.9 93.2114 1242.15 93.3379 1242.43 93.3379ZM1281.44 81.5261C1281.44 81.0264 1281.02 80.6198 1280.51 80.6198C1280 80.6198 1279.58 81.0264 1279.58 81.5261C1279.58 82.0257 1280 82.4323 1280.51 82.4323C1281.02 82.4323 1281.44 82.0257 1281.44 81.5261Z" fill="white"/>
<path d="M1257.78 110.795L1258.17 117.033C1258.2 117.55 1257.82 118.005 1257.3 118.082C1255.41 118.359 1253.48 118.5 1251.56 118.5C1249.65 118.5 1247.72 118.359 1245.83 118.082C1245.3 118.005 1244.93 117.55 1244.96 117.033L1245.29 111.677C1241.26 110.891 1237.48 109.371 1234.05 107.148L1230.39 111.163C1230.04 111.55 1229.44 111.612 1229.01 111.305C1225.91 109.088 1223.19 106.436 1220.9 103.423C1220.59 103.006 1220.65 102.425 1221.05 102.081L1225.18 98.5235C1222.89 95.1861 1221.33 91.5191 1220.52 87.5987L1215.01 87.921C1214.48 87.9525 1214.01 87.5844 1213.93 87.0723C1213.64 85.2408 1213.5 83.3658 1213.5 81.4989C1213.5 79.6323 1213.64 77.7573 1213.93 75.9255C1214.01 75.4134 1214.48 75.037 1215.01 75.0768L1220.52 75.3991C1221.33 71.48 1222.89 67.8127 1225.18 64.4753L1221.05 60.9166C1220.65 60.5732 1220.59 59.9915 1220.9 59.5751C1223.18 56.565 1225.91 53.9132 1229.01 51.6928C1229.44 51.3858 1230.04 51.448 1230.39 51.8344L1234.05 55.8498C1237.51 53.619 1241.42 52.0541 1245.48 51.2839L1245.04 45.9743C1245 45.4495 1245.38 44.9818 1245.92 44.9043C1249.64 44.3652 1253.49 44.3652 1257.21 44.9043C1257.75 44.9818 1258.13 45.4496 1258.09 45.9743L1257.57 52.1893C1257.52 52.7401 1257.02 53.1503 1256.46 53.105C1255.89 53.0601 1255.47 52.5776 1255.52 52.0273L1255.96 46.7572C1253.05 46.4128 1250.08 46.4128 1247.17 46.7572L1247.61 52.0268C1247.66 52.546 1247.28 53.0109 1246.75 53.0949C1242.36 53.7915 1238.12 55.4843 1234.48 57.9899C1234.05 58.2849 1233.46 58.2181 1233.11 57.8373L1229.48 53.8537C1227.1 55.6511 1224.97 57.7247 1223.12 60.034L1227.22 63.565C1227.61 63.9035 1227.68 64.4749 1227.38 64.8912C1224.81 68.4236 1223.12 72.3693 1222.38 76.6188C1222.29 77.1218 1221.82 77.4795 1221.3 77.4485L1215.84 77.1288C1215.65 78.5723 1215.56 80.0384 1215.56 81.499C1215.56 82.9599 1215.65 84.4259 1215.84 85.8692L1221.3 85.5495C1221.82 85.5157 1222.29 85.8767 1222.38 86.3793C1223.12 90.6301 1224.81 94.5761 1227.38 98.1078C1227.68 98.5242 1227.61 99.0954 1227.22 99.434L1223.12 102.964C1224.97 105.276 1227.11 107.349 1229.48 109.144L1233.11 105.161C1233.46 104.779 1234.05 104.713 1234.48 105.008C1238.11 107.508 1242.17 109.143 1246.54 109.869C1247.06 109.955 1247.43 110.406 1247.4 110.915L1247.07 116.229C1250.04 116.589 1253.09 116.589 1256.06 116.229L1255.73 110.915C1255.7 110.363 1256.13 109.89 1256.7 109.857C1257.26 109.827 1257.75 110.244 1257.78 110.795ZM1279.87 67.5195C1281.52 67.5195 1282.86 68.8234 1282.86 70.4259C1282.86 72.0285 1281.52 73.3323 1279.87 73.3323C1279.49 73.3323 1279.13 73.2564 1278.8 73.131L1276 75.947C1275.8 76.142 1275.54 76.2524 1275.26 76.2524H1260.97C1260.4 76.2524 1259.94 75.8048 1259.94 75.2524C1259.94 74.7 1260.4 74.2524 1260.97 74.2524H1274.82L1277.25 71.8052C1277.02 71.3928 1276.88 70.9277 1276.88 70.4261C1276.88 68.8232 1278.22 67.5195 1279.87 67.5195ZM1278.93 70.4259C1278.93 70.9256 1279.35 71.3321 1279.87 71.3321C1280.38 71.3321 1280.8 70.9256 1280.8 70.4259C1280.8 69.9263 1280.38 69.5197 1279.87 69.5197C1279.35 69.5196 1278.93 69.9261 1278.93 70.4259ZM1268.7 64.8892L1272.51 59.5583C1272.12 59.0691 1271.89 58.4651 1271.89 57.8029C1271.89 56.2003 1273.23 54.8965 1274.87 54.8965C1276.52 54.8965 1277.86 56.2003 1277.86 57.8029C1277.86 59.4054 1276.52 60.7092 1274.87 60.7092C1274.66 60.7092 1274.45 60.6835 1274.24 60.6403L1270.08 66.4604C1269.89 66.729 1269.57 66.8895 1269.23 66.8895H1257.92C1257.35 66.8895 1256.89 66.4419 1256.89 65.8895C1256.89 65.3371 1257.35 64.8895 1257.92 64.8895H1268.7V64.8892ZM1273.94 57.8029C1273.94 58.3025 1274.36 58.7091 1274.87 58.7091C1275.39 58.7091 1275.81 58.3025 1275.81 57.8029C1275.81 57.3032 1275.39 56.8967 1274.87 56.8967C1274.36 56.8965 1273.94 57.3031 1273.94 57.8029ZM1277.62 105.196C1277.62 106.798 1276.28 108.102 1274.63 108.102C1272.98 108.102 1271.64 106.798 1271.64 105.196C1271.64 104.412 1271.96 103.703 1272.48 103.179L1268.69 97.8852H1257.92C1257.35 97.8852 1256.89 97.4376 1256.89 96.8852C1256.89 96.3328 1257.35 95.8852 1257.92 95.8852H1269.23C1269.57 95.8852 1269.89 96.0456 1270.08 96.3143L1274.37 102.315C1274.46 102.307 1274.54 102.289 1274.63 102.289C1276.28 102.289 1277.62 103.593 1277.62 105.196ZM1275.56 105.196C1275.56 104.696 1275.14 104.289 1274.63 104.289C1274.11 104.289 1273.69 104.696 1273.69 105.196C1273.69 105.695 1274.11 106.102 1274.63 106.102C1275.14 106.102 1275.56 105.695 1275.56 105.196ZM1282.61 92.8506C1282.61 94.4532 1281.27 95.757 1279.62 95.757C1277.97 95.757 1276.63 94.4532 1276.63 92.8506C1276.63 92.2267 1276.84 91.6518 1277.18 91.1777L1274.82 88.8004H1260.97C1260.4 88.8004 1259.94 88.3528 1259.94 87.8004C1259.94 87.248 1260.4 86.8004 1260.97 86.8004H1275.26C1275.54 86.8004 1275.8 86.9109 1276 87.1058L1278.91 90.0363C1279.14 89.9817 1279.37 89.9444 1279.62 89.9444C1281.27 89.9443 1282.61 91.2479 1282.61 92.8506ZM1280.55 92.8506C1280.55 92.351 1280.13 91.9444 1279.62 91.9444C1279.11 91.9444 1278.69 92.351 1278.69 92.8506C1278.69 93.3503 1279.11 93.7569 1279.62 93.7569C1280.13 93.7569 1280.55 93.3503 1280.55 92.8506ZM1283.5 81.5261C1283.5 83.1286 1282.16 84.4324 1280.51 84.4324C1279.22 84.4324 1278.14 83.6352 1277.71 82.5258H1255.16V100.204C1255.16 103.826 1252.13 106.773 1248.41 106.773C1245.68 106.773 1243.27 105.218 1242.21 102.835C1242.17 102.836 1242.13 102.837 1242.08 102.837C1238.36 102.837 1235.33 99.8896 1235.33 96.2674C1235.33 96.0939 1235.33 95.9203 1235.35 95.7475C1233.74 95.4353 1232.22 94.6326 1230.98 93.4249C1229.39 91.8756 1228.51 89.8161 1228.51 87.6253C1228.51 85.4345 1229.39 83.3749 1230.98 81.826C1231.1 81.7098 1231.23 81.6079 1231.36 81.4992C1231.23 81.3903 1231.1 81.2884 1230.98 81.1724C1229.39 79.6232 1228.51 77.5636 1228.51 75.3731C1228.51 73.1823 1229.39 71.1227 1230.98 69.5735C1232.22 68.3658 1233.74 67.563 1235.35 67.2509C1235.33 67.078 1235.33 66.9046 1235.33 66.731C1235.33 63.1085 1238.36 60.1615 1242.08 60.1615C1242.13 60.1615 1242.17 60.1618 1242.21 60.1628C1243.27 57.7799 1245.68 56.2252 1248.41 56.2252C1252.13 56.2252 1255.16 59.1721 1255.16 62.7944V80.5259H1277.71C1278.14 79.4168 1279.22 78.62 1280.51 78.62C1282.16 78.6198 1283.5 79.9235 1283.5 81.5261ZM1232.44 79.7581C1232.72 80.0356 1233.05 80.2792 1233.39 80.499H1253.11V62.7941C1253.11 60.2745 1251 58.225 1248.41 58.225C1246.68 58.225 1245.14 59.1203 1244.32 60.5297C1245.15 60.813 1245.92 61.2544 1246.59 61.8364C1246.6 61.8432 1246.6 61.8529 1246.61 61.8598C1246.99 61.6858 1247.42 61.5815 1247.87 61.5815C1249.51 61.5815 1250.86 62.8853 1250.86 64.4874C1250.86 66.09 1249.51 67.3938 1247.87 67.3938C1246.22 67.3938 1244.88 66.09 1244.88 64.4874C1244.88 64.0541 1244.98 63.6465 1245.16 63.2768C1244.3 62.5582 1243.22 62.1612 1242.08 62.1612C1239.49 62.1612 1237.38 64.2111 1237.38 66.7307C1237.38 66.8749 1237.4 67.0183 1237.41 67.1615C1238.63 67.284 1239.8 67.6579 1240.85 68.27C1241.31 67.9875 1241.85 67.8176 1242.43 67.8176C1244.08 67.8176 1245.42 69.1214 1245.42 70.7239C1245.42 72.3262 1244.08 73.6299 1242.43 73.6299C1240.78 73.6299 1239.44 72.3261 1239.44 70.7239C1239.44 70.43 1239.5 70.1516 1239.58 69.8839C1238.66 69.388 1237.63 69.1172 1236.55 69.1139C1235.06 69.1935 1233.6 69.857 1232.44 70.9873C1231.23 72.1588 1230.57 73.7162 1230.57 75.3728C1230.57 77.0293 1231.23 78.5866 1232.44 79.7581ZM1241.5 70.7241C1241.5 71.2237 1241.92 71.63 1242.43 71.63C1242.95 71.63 1243.36 71.2237 1243.36 70.7241C1243.36 70.2244 1242.95 69.8179 1242.43 69.8179C1241.92 69.8177 1241.5 70.2243 1241.5 70.7241ZM1247.87 65.3938C1248.38 65.3938 1248.8 64.9872 1248.8 64.4876C1248.8 63.9879 1248.38 63.5816 1247.87 63.5816C1247.35 63.5816 1246.93 63.9879 1246.93 64.4876C1246.93 64.9872 1247.35 65.3938 1247.87 65.3938ZM1253.11 100.204V82.499H1233.37C1233.03 82.7166 1232.72 82.9651 1232.44 83.2399C1231.23 84.4112 1230.57 85.9685 1230.57 87.6251C1230.57 89.2817 1231.23 90.8391 1232.44 92.0106C1233.6 93.1409 1235.06 93.8044 1236.55 93.884C1237.61 93.8807 1238.63 93.62 1239.54 93.1388C1239.48 92.9112 1239.44 92.6768 1239.44 92.4315C1239.44 90.8289 1240.78 89.5251 1242.43 89.5251C1244.08 89.5251 1245.42 90.8289 1245.42 92.4315C1245.42 94.0341 1244.08 95.3379 1242.43 95.3379C1241.79 95.3379 1241.2 95.1364 1240.71 94.8008C1239.7 95.3682 1238.58 95.7192 1237.41 95.8365C1237.4 95.9797 1237.38 96.1231 1237.38 96.2674C1237.38 98.787 1239.49 100.836 1242.08 100.836C1243.19 100.836 1244.26 100.455 1245.1 99.7652C1244.96 99.4261 1244.88 99.0564 1244.88 98.6677C1244.88 97.0652 1246.22 95.7614 1247.87 95.7614C1249.51 95.7614 1250.86 97.0652 1250.86 98.6677C1250.86 100.27 1249.51 101.574 1247.87 101.574C1247.37 101.574 1246.91 101.445 1246.5 101.236C1245.85 101.779 1245.11 102.198 1244.32 102.468C1245.14 103.878 1246.68 104.773 1248.41 104.773C1251 104.773 1253.11 102.724 1253.11 100.204ZM1247.87 99.5741C1248.38 99.5741 1248.8 99.1675 1248.8 98.6679C1248.8 98.1682 1248.38 97.7617 1247.87 97.7617C1247.35 97.7617 1246.93 98.1682 1246.93 98.6679C1246.93 99.1675 1247.35 99.5741 1247.87 99.5741ZM1242.43 93.3379C1242.95 93.3379 1243.36 92.9313 1243.36 92.4316C1243.36 91.932 1242.95 91.5254 1242.43 91.5254C1241.92 91.5254 1241.5 91.932 1241.5 92.4316C1241.5 92.5993 1241.55 92.7544 1241.63 92.8892C1241.65 92.9087 1241.67 92.9252 1241.68 92.9463C1241.7 92.9687 1241.71 92.9933 1241.73 93.0166C1241.9 93.2114 1242.15 93.3379 1242.43 93.3379ZM1281.44 81.5261C1281.44 81.0264 1281.02 80.6198 1280.51 80.6198C1280 80.6198 1279.58 81.0264 1279.58 81.5261C1279.58 82.0257 1280 82.4323 1280.51 82.4323C1281.02 82.4323 1281.44 82.0257 1281.44 81.5261Z" stroke="white" mask="url(#path-5-outside-1_3_82)"/>
</svg>
