<svg width="1363" height="163" viewBox="0 0 1363 163" fill="none" xmlns="http://www.w3.org/2000/svg">
<path d="M0 15C0 6.71573 6.71573 0 15 0H37V163H15C6.71573 163 0 156.284 0 148V15Z" fill="#424242"/>
<rect width="1097" height="163" transform="translate(37)" fill="#F0F0F0"/>
<path d="M101.906 53.9219L94.3945 51.2383V48.0859L104.602 52.375V54.6367L101.906 53.9219ZM94.3945 56.1719L101.918 53.4297L104.602 52.7852V55.0352L94.3945 59.3242V56.1719ZM119.543 54.918H115.195V52.1758H119.543C120.215 52.1758 120.762 52.0664 121.184 51.8477C121.605 51.6211 121.914 51.3086 122.109 50.9102C122.305 50.5117 122.402 50.0625 122.402 49.5625C122.402 49.0547 122.305 48.582 122.109 48.1445C121.914 47.707 121.605 47.3555 121.184 47.0898C120.762 46.8242 120.215 46.6914 119.543 46.6914H116.414V61H112.898V43.9375H119.543C120.879 43.9375 122.023 44.1797 122.977 44.6641C123.938 45.1406 124.672 45.8008 125.18 46.6445C125.688 47.4883 125.941 48.4531 125.941 49.5391C125.941 50.6406 125.688 51.5938 125.18 52.3984C124.672 53.2031 123.938 53.8242 122.977 54.2617C122.023 54.6992 120.879 54.918 119.543 54.918ZM133.828 61.2344C132.844 61.2344 131.961 61.0781 131.18 60.7656C130.398 60.4453 129.734 60.0039 129.188 59.4414C128.648 58.8789 128.234 58.2266 127.945 57.4844C127.656 56.7344 127.512 55.9375 127.512 55.0938V54.625C127.512 53.6641 127.648 52.7852 127.922 51.9883C128.195 51.1914 128.586 50.5 129.094 49.9141C129.609 49.3281 130.234 48.8789 130.969 48.5664C131.703 48.2461 132.531 48.0859 133.453 48.0859C134.352 48.0859 135.148 48.2344 135.844 48.5312C136.539 48.8281 137.121 49.25 137.59 49.7969C138.066 50.3438 138.426 51 138.668 51.7656C138.91 52.5234 139.031 53.3672 139.031 54.2969V55.7031H128.953V53.4531H135.715V53.1953C135.715 52.7266 135.629 52.3086 135.457 51.9414C135.293 51.5664 135.043 51.2695 134.707 51.0508C134.371 50.832 133.941 50.7227 133.418 50.7227C132.973 50.7227 132.59 50.8203 132.27 51.0156C131.949 51.2109 131.688 51.4844 131.484 51.8359C131.289 52.1875 131.141 52.6016 131.039 53.0781C130.945 53.5469 130.898 54.0625 130.898 54.625V55.0938C130.898 55.6016 130.969 56.0703 131.109 56.5C131.258 56.9297 131.465 57.3008 131.73 57.6133C132.004 57.9258 132.332 58.168 132.715 58.3398C133.105 58.5117 133.547 58.5977 134.039 58.5977C134.648 58.5977 135.215 58.4805 135.738 58.2461C136.27 58.0039 136.727 57.6406 137.109 57.1562L138.75 58.9375C138.484 59.3203 138.121 59.6875 137.66 60.0391C137.207 60.3906 136.66 60.6797 136.02 60.9062C135.379 61.125 134.648 61.2344 133.828 61.2344ZM147.797 58.1406V52.4922C147.797 52.0859 147.73 51.7383 147.598 51.4492C147.465 51.1523 147.258 50.9219 146.977 50.7578C146.703 50.5938 146.348 50.5117 145.91 50.5117C145.535 50.5117 145.211 50.5781 144.938 50.7109C144.664 50.8359 144.453 51.0195 144.305 51.2617C144.156 51.4961 144.082 51.7734 144.082 52.0938H140.707C140.707 51.5547 140.832 51.043 141.082 50.5586C141.332 50.0742 141.695 49.6484 142.172 49.2812C142.648 48.9062 143.215 48.6133 143.871 48.4023C144.535 48.1914 145.277 48.0859 146.098 48.0859C147.082 48.0859 147.957 48.25 148.723 48.5781C149.488 48.9062 150.09 49.3984 150.527 50.0547C150.973 50.7109 151.195 51.5312 151.195 52.5156V57.9414C151.195 58.6367 151.238 59.207 151.324 59.6523C151.41 60.0898 151.535 60.4727 151.699 60.8008V61H148.289C148.125 60.6562 148 60.2266 147.914 59.7109C147.836 59.1875 147.797 58.6641 147.797 58.1406ZM148.242 53.2773L148.266 55.1875H146.379C145.934 55.1875 145.547 55.2383 145.219 55.3398C144.891 55.4414 144.621 55.5859 144.41 55.7734C144.199 55.9531 144.043 56.1641 143.941 56.4062C143.848 56.6484 143.801 56.9141 143.801 57.2031C143.801 57.4922 143.867 57.7539 144 57.9883C144.133 58.2148 144.324 58.3945 144.574 58.5273C144.824 58.6523 145.117 58.7148 145.453 58.7148C145.961 58.7148 146.402 58.6133 146.777 58.4102C147.152 58.207 147.441 57.957 147.645 57.6602C147.855 57.3633 147.965 57.082 147.973 56.8164L148.863 58.2461C148.738 58.5664 148.566 58.8984 148.348 59.2422C148.137 59.5859 147.867 59.9102 147.539 60.2148C147.211 60.5117 146.816 60.7578 146.355 60.9531C145.895 61.1406 145.348 61.2344 144.715 61.2344C143.91 61.2344 143.18 61.0742 142.523 60.7539C141.875 60.4258 141.359 59.9766 140.977 59.4062C140.602 58.8281 140.414 58.1719 140.414 57.4375C140.414 56.7734 140.539 56.1836 140.789 55.668C141.039 55.1523 141.406 54.7188 141.891 54.3672C142.383 54.0078 142.996 53.7383 143.73 53.5586C144.465 53.3711 145.316 53.2773 146.285 53.2773H148.242ZM159.035 58.5977C159.449 58.5977 159.816 58.5195 160.137 58.3633C160.457 58.1992 160.707 57.9727 160.887 57.6836C161.074 57.3867 161.172 57.0391 161.18 56.6406H164.355C164.348 57.5312 164.109 58.3242 163.641 59.0195C163.172 59.707 162.543 60.25 161.754 60.6484C160.965 61.0391 160.082 61.2344 159.105 61.2344C158.121 61.2344 157.262 61.0703 156.527 60.7422C155.801 60.4141 155.195 59.9609 154.711 59.3828C154.227 58.7969 153.863 58.1172 153.621 57.3438C153.379 56.5625 153.258 55.7266 153.258 54.8359V54.4961C153.258 53.5977 153.379 52.7617 153.621 51.9883C153.863 51.207 154.227 50.5273 154.711 49.9492C155.195 49.3633 155.801 48.9062 156.527 48.5781C157.254 48.25 158.105 48.0859 159.082 48.0859C160.121 48.0859 161.031 48.2852 161.812 48.6836C162.602 49.082 163.219 49.6523 163.664 50.3945C164.117 51.1289 164.348 52 164.355 53.0078H161.18C161.172 52.5859 161.082 52.2031 160.91 51.8594C160.746 51.5156 160.504 51.2422 160.184 51.0391C159.871 50.8281 159.484 50.7227 159.023 50.7227C158.531 50.7227 158.129 50.8281 157.816 51.0391C157.504 51.2422 157.262 51.5234 157.09 51.8828C156.918 52.2344 156.797 52.6367 156.727 53.0898C156.664 53.5352 156.633 54.0039 156.633 54.4961V54.8359C156.633 55.3281 156.664 55.8008 156.727 56.2539C156.789 56.707 156.906 57.1094 157.078 57.4609C157.258 57.8125 157.504 58.0898 157.816 58.293C158.129 58.4961 158.535 58.5977 159.035 58.5977ZM172.148 61.2344C171.164 61.2344 170.281 61.0781 169.5 60.7656C168.719 60.4453 168.055 60.0039 167.508 59.4414C166.969 58.8789 166.555 58.2266 166.266 57.4844C165.977 56.7344 165.832 55.9375 165.832 55.0938V54.625C165.832 53.6641 165.969 52.7852 166.242 51.9883C166.516 51.1914 166.906 50.5 167.414 49.9141C167.93 49.3281 168.555 48.8789 169.289 48.5664C170.023 48.2461 170.852 48.0859 171.773 48.0859C172.672 48.0859 173.469 48.2344 174.164 48.5312C174.859 48.8281 175.441 49.25 175.91 49.7969C176.387 50.3438 176.746 51 176.988 51.7656C177.23 52.5234 177.352 53.3672 177.352 54.2969V55.7031H167.273V53.4531H174.035V53.1953C174.035 52.7266 173.949 52.3086 173.777 51.9414C173.613 51.5664 173.363 51.2695 173.027 51.0508C172.691 50.832 172.262 50.7227 171.738 50.7227C171.293 50.7227 170.91 50.8203 170.59 51.0156C170.27 51.2109 170.008 51.4844 169.805 51.8359C169.609 52.1875 169.461 52.6016 169.359 53.0781C169.266 53.5469 169.219 54.0625 169.219 54.625V55.0938C169.219 55.6016 169.289 56.0703 169.43 56.5C169.578 56.9297 169.785 57.3008 170.051 57.6133C170.324 57.9258 170.652 58.168 171.035 58.3398C171.426 58.5117 171.867 58.5977 172.359 58.5977C172.969 58.5977 173.535 58.4805 174.059 58.2461C174.59 58.0039 175.047 57.6406 175.43 57.1562L177.07 58.9375C176.805 59.3203 176.441 59.6875 175.98 60.0391C175.527 60.3906 174.98 60.6797 174.34 60.9062C173.699 61.125 172.969 61.2344 172.148 61.2344ZM192.105 54.918H187.758V52.1758H192.105C192.777 52.1758 193.324 52.0664 193.746 51.8477C194.168 51.6211 194.477 51.3086 194.672 50.9102C194.867 50.5117 194.965 50.0625 194.965 49.5625C194.965 49.0547 194.867 48.582 194.672 48.1445C194.477 47.707 194.168 47.3555 193.746 47.0898C193.324 46.8242 192.777 46.6914 192.105 46.6914H188.977V61H185.461V43.9375H192.105C193.441 43.9375 194.586 44.1797 195.539 44.6641C196.5 45.1406 197.234 45.8008 197.742 46.6445C198.25 47.4883 198.504 48.4531 198.504 49.5391C198.504 50.6406 198.25 51.5938 197.742 52.3984C197.234 53.2031 196.5 53.8242 195.539 54.2617C194.586 54.6992 193.441 54.918 192.105 54.918ZM208.219 57.9648V48.3203H211.594V61H208.418L208.219 57.9648ZM208.594 55.3633L209.59 55.3398C209.59 56.1836 209.492 56.9688 209.297 57.6953C209.102 58.4141 208.809 59.0391 208.418 59.5703C208.027 60.0938 207.535 60.5039 206.941 60.8008C206.348 61.0898 205.648 61.2344 204.844 61.2344C204.227 61.2344 203.656 61.1484 203.133 60.9766C202.617 60.7969 202.172 60.5195 201.797 60.1445C201.43 59.7617 201.141 59.2734 200.93 58.6797C200.727 58.0781 200.625 57.3555 200.625 56.5117V48.3203H204V56.5352C204 56.9102 204.043 57.2266 204.129 57.4844C204.223 57.7422 204.352 57.9531 204.516 58.1172C204.68 58.2812 204.871 58.3984 205.09 58.4688C205.316 58.5391 205.566 58.5742 205.84 58.5742C206.535 58.5742 207.082 58.4336 207.48 58.1523C207.887 57.8711 208.172 57.4883 208.336 57.0039C208.508 56.5117 208.594 55.9648 208.594 55.3633ZM217.734 43V61H214.348V43H217.734ZM225.762 58.5977C226.176 58.5977 226.543 58.5195 226.863 58.3633C227.184 58.1992 227.434 57.9727 227.613 57.6836C227.801 57.3867 227.898 57.0391 227.906 56.6406H231.082C231.074 57.5312 230.836 58.3242 230.367 59.0195C229.898 59.707 229.27 60.25 228.48 60.6484C227.691 61.0391 226.809 61.2344 225.832 61.2344C224.848 61.2344 223.988 61.0703 223.254 60.7422C222.527 60.4141 221.922 59.9609 221.438 59.3828C220.953 58.7969 220.59 58.1172 220.348 57.3438C220.105 56.5625 219.984 55.7266 219.984 54.8359V54.4961C219.984 53.5977 220.105 52.7617 220.348 51.9883C220.59 51.207 220.953 50.5273 221.438 49.9492C221.922 49.3633 222.527 48.9062 223.254 48.5781C223.98 48.25 224.832 48.0859 225.809 48.0859C226.848 48.0859 227.758 48.2852 228.539 48.6836C229.328 49.082 229.945 49.6523 230.391 50.3945C230.844 51.1289 231.074 52 231.082 53.0078H227.906C227.898 52.5859 227.809 52.2031 227.637 51.8594C227.473 51.5156 227.23 51.2422 226.91 51.0391C226.598 50.8281 226.211 50.7227 225.75 50.7227C225.258 50.7227 224.855 50.8281 224.543 51.0391C224.23 51.2422 223.988 51.5234 223.816 51.8828C223.645 52.2344 223.523 52.6367 223.453 53.0898C223.391 53.5352 223.359 54.0039 223.359 54.4961V54.8359C223.359 55.3281 223.391 55.8008 223.453 56.2539C223.516 56.707 223.633 57.1094 223.805 57.4609C223.984 57.8125 224.23 58.0898 224.543 58.293C224.855 58.4961 225.262 58.5977 225.762 58.5977ZM238.875 61.2344C237.891 61.2344 237.008 61.0781 236.227 60.7656C235.445 60.4453 234.781 60.0039 234.234 59.4414C233.695 58.8789 233.281 58.2266 232.992 57.4844C232.703 56.7344 232.559 55.9375 232.559 55.0938V54.625C232.559 53.6641 232.695 52.7852 232.969 51.9883C233.242 51.1914 233.633 50.5 234.141 49.9141C234.656 49.3281 235.281 48.8789 236.016 48.5664C236.75 48.2461 237.578 48.0859 238.5 48.0859C239.398 48.0859 240.195 48.2344 240.891 48.5312C241.586 48.8281 242.168 49.25 242.637 49.7969C243.113 50.3438 243.473 51 243.715 51.7656C243.957 52.5234 244.078 53.3672 244.078 54.2969V55.7031H234V53.4531H240.762V53.1953C240.762 52.7266 240.676 52.3086 240.504 51.9414C240.34 51.5664 240.09 51.2695 239.754 51.0508C239.418 50.832 238.988 50.7227 238.465 50.7227C238.02 50.7227 237.637 50.8203 237.316 51.0156C236.996 51.2109 236.734 51.4844 236.531 51.8359C236.336 52.1875 236.188 52.6016 236.086 53.0781C235.992 53.5469 235.945 54.0625 235.945 54.625V55.0938C235.945 55.6016 236.016 56.0703 236.156 56.5C236.305 56.9297 236.512 57.3008 236.777 57.6133C237.051 57.9258 237.379 58.168 237.762 58.3398C238.152 58.5117 238.594 58.5977 239.086 58.5977C239.695 58.5977 240.262 58.4805 240.785 58.2461C241.316 58.0039 241.773 57.6406 242.156 57.1562L243.797 58.9375C243.531 59.3203 243.168 59.6875 242.707 60.0391C242.254 60.3906 241.707 60.6797 241.066 60.9062C240.426 61.125 239.695 61.2344 238.875 61.2344Z" fill="#888888"/>
<path d="M112.125 84.875V119H103.898V84.875H112.125ZM122.391 84.875V91.2266H93.8672V84.875H122.391ZM135.68 119.469C133.617 119.469 131.773 119.148 130.148 118.508C128.523 117.852 127.148 116.953 126.023 115.812C124.914 114.672 124.062 113.359 123.469 111.875C122.891 110.391 122.602 108.82 122.602 107.164V106.273C122.602 104.414 122.859 102.695 123.375 101.117C123.891 99.5234 124.656 98.1328 125.672 96.9453C126.688 95.7578 127.961 94.8359 129.492 94.1797C131.023 93.5078 132.805 93.1719 134.836 93.1719C136.633 93.1719 138.242 93.4609 139.664 94.0391C141.086 94.6172 142.289 95.4453 143.273 96.5234C144.273 97.6016 145.031 98.9062 145.547 100.438C146.078 101.969 146.344 103.688 146.344 105.594V108.805H125.625V103.859H138.633V103.25C138.648 102.406 138.5 101.688 138.188 101.094C137.891 100.5 137.453 100.047 136.875 99.7344C136.297 99.4219 135.594 99.2656 134.766 99.2656C133.906 99.2656 133.195 99.4531 132.633 99.8281C132.086 100.203 131.656 100.719 131.344 101.375C131.047 102.016 130.836 102.758 130.711 103.602C130.586 104.445 130.523 105.336 130.523 106.273V107.164C130.523 108.102 130.648 108.953 130.898 109.719C131.164 110.484 131.539 111.141 132.023 111.688C132.523 112.219 133.117 112.633 133.805 112.93C134.508 113.227 135.305 113.375 136.195 113.375C137.273 113.375 138.336 113.172 139.383 112.766C140.43 112.359 141.328 111.688 142.078 110.75L145.664 115.016C145.148 115.75 144.414 116.461 143.461 117.148C142.523 117.836 141.398 118.398 140.086 118.836C138.773 119.258 137.305 119.469 135.68 119.469ZM160.266 113.375C161 113.375 161.625 113.242 162.141 112.977C162.672 112.695 163.07 112.305 163.336 111.805C163.617 111.289 163.75 110.672 163.734 109.953H171.164C171.18 111.859 170.711 113.531 169.758 114.969C168.82 116.391 167.539 117.5 165.914 118.297C164.305 119.078 162.484 119.469 160.453 119.469C158.469 119.469 156.734 119.148 155.25 118.508C153.766 117.852 152.523 116.945 151.523 115.789C150.539 114.617 149.797 113.25 149.297 111.688C148.812 110.125 148.57 108.43 148.57 106.602V106.062C148.57 104.234 148.812 102.539 149.297 100.977C149.797 99.3984 150.539 98.0312 151.523 96.875C152.523 95.7031 153.758 94.7969 155.227 94.1562C156.711 93.5 158.438 93.1719 160.406 93.1719C162.516 93.1719 164.375 93.5703 165.984 94.3672C167.609 95.1641 168.883 96.3203 169.805 97.8359C170.727 99.3516 171.18 101.188 171.164 103.344H163.734C163.75 102.578 163.633 101.891 163.383 101.281C163.133 100.672 162.742 100.188 162.211 99.8281C161.695 99.4531 161.031 99.2656 160.219 99.2656C159.406 99.2656 158.75 99.4453 158.25 99.8047C157.75 100.164 157.367 100.664 157.102 101.305C156.852 101.93 156.68 102.648 156.586 103.461C156.508 104.273 156.469 105.141 156.469 106.062V106.602C156.469 107.539 156.508 108.422 156.586 109.25C156.68 110.062 156.859 110.781 157.125 111.406C157.391 112.016 157.773 112.5 158.273 112.859C158.773 113.203 159.438 113.375 160.266 113.375ZM182.273 83V119H174.375V83H182.273ZM181.336 105.453L179.484 105.5C179.484 103.719 179.703 102.078 180.141 100.578C180.578 99.0781 181.203 97.7734 182.016 96.6641C182.828 95.5547 183.805 94.6953 184.945 94.0859C186.086 93.4766 187.352 93.1719 188.742 93.1719C189.992 93.1719 191.133 93.3516 192.164 93.7109C193.211 94.0703 194.109 94.6484 194.859 95.4453C195.625 96.2422 196.211 97.2812 196.617 98.5625C197.039 99.8438 197.25 101.406 197.25 103.25V119H189.305V103.203C189.305 102.172 189.156 101.375 188.859 100.812C188.578 100.234 188.172 99.8359 187.641 99.6172C187.109 99.3828 186.461 99.2656 185.695 99.2656C184.773 99.2656 184.023 99.4219 183.445 99.7344C182.867 100.047 182.422 100.484 182.109 101.047C181.812 101.594 181.609 102.242 181.5 102.992C181.391 103.742 181.336 104.562 181.336 105.453ZM231.539 109.93C231.539 109.398 231.461 108.922 231.305 108.5C231.148 108.062 230.859 107.656 230.438 107.281C230.016 106.906 229.406 106.531 228.609 106.156C227.828 105.766 226.797 105.359 225.516 104.938C224.016 104.438 222.57 103.875 221.18 103.25C219.789 102.609 218.547 101.867 217.453 101.023C216.359 100.164 215.492 99.1641 214.852 98.0234C214.211 96.8672 213.891 95.5234 213.891 93.9922C213.891 92.5234 214.219 91.2031 214.875 90.0312C215.531 88.8438 216.445 87.8359 217.617 87.0078C218.805 86.1641 220.195 85.5234 221.789 85.0859C223.383 84.6328 225.125 84.4062 227.016 84.4062C229.516 84.4062 231.719 84.8438 233.625 85.7188C235.547 86.5781 237.047 87.8047 238.125 89.3984C239.219 90.9766 239.766 92.8438 239.766 95H231.586C231.586 94.1406 231.406 93.3828 231.047 92.7266C230.703 92.0703 230.18 91.5547 229.477 91.1797C228.773 90.8047 227.891 90.6172 226.828 90.6172C225.797 90.6172 224.93 90.7734 224.227 91.0859C223.523 91.3984 222.992 91.8203 222.633 92.3516C222.273 92.8672 222.094 93.4375 222.094 94.0625C222.094 94.5781 222.234 95.0469 222.516 95.4688C222.812 95.875 223.227 96.2578 223.758 96.6172C224.305 96.9766 224.961 97.3203 225.727 97.6484C226.508 97.9766 227.383 98.2969 228.352 98.6094C230.164 99.1875 231.773 99.8359 233.18 100.555C234.602 101.258 235.797 102.062 236.766 102.969C237.75 103.859 238.492 104.875 238.992 106.016C239.508 107.156 239.766 108.445 239.766 109.883C239.766 111.414 239.469 112.773 238.875 113.961C238.281 115.148 237.43 116.156 236.32 116.984C235.211 117.797 233.883 118.414 232.336 118.836C230.789 119.258 229.062 119.469 227.156 119.469C225.406 119.469 223.68 119.25 221.977 118.812C220.289 118.359 218.758 117.672 217.383 116.75C216.008 115.812 214.906 114.617 214.078 113.164C213.266 111.695 212.859 109.953 212.859 107.938H221.109C221.109 108.938 221.242 109.781 221.508 110.469C221.773 111.156 222.164 111.711 222.68 112.133C223.195 112.539 223.828 112.836 224.578 113.023C225.328 113.195 226.188 113.281 227.156 113.281C228.203 113.281 229.047 113.133 229.688 112.836C230.328 112.523 230.797 112.117 231.094 111.617C231.391 111.102 231.539 110.539 231.539 109.93ZM256.992 93.6406V99.125H241.711V93.6406H256.992ZM244.922 87.3359H252.82V110.727C252.82 111.398 252.898 111.922 253.055 112.297C253.211 112.656 253.477 112.914 253.852 113.07C254.242 113.211 254.758 113.281 255.398 113.281C255.852 113.281 256.227 113.273 256.523 113.258C256.82 113.227 257.102 113.188 257.367 113.141V118.789C256.695 119.008 255.992 119.172 255.258 119.281C254.523 119.406 253.742 119.469 252.914 119.469C251.227 119.469 249.781 119.203 248.578 118.672C247.391 118.141 246.484 117.305 245.859 116.164C245.234 115.023 244.922 113.539 244.922 111.711V87.3359ZM273.305 112.625V102.172C273.305 101.453 273.203 100.836 273 100.32C272.797 99.8047 272.477 99.4062 272.039 99.125C271.602 98.8281 271.016 98.6797 270.281 98.6797C269.688 98.6797 269.18 98.7812 268.758 98.9844C268.336 99.1875 268.016 99.4922 267.797 99.8984C267.578 100.305 267.469 100.82 267.469 101.445H259.57C259.57 100.273 259.828 99.1875 260.344 98.1875C260.875 97.1719 261.625 96.2891 262.594 95.5391C263.578 94.7891 264.75 94.2109 266.109 93.8047C267.484 93.3828 269.016 93.1719 270.703 93.1719C272.719 93.1719 274.516 93.5078 276.094 94.1797C277.688 94.8516 278.945 95.8594 279.867 97.2031C280.789 98.5312 281.25 100.203 281.25 102.219V112.602C281.25 114.258 281.344 115.516 281.531 116.375C281.719 117.219 281.984 117.961 282.328 118.602V119H274.406C274.031 118.219 273.75 117.266 273.562 116.141C273.391 115 273.305 113.828 273.305 112.625ZM274.266 103.508L274.312 107.727H270.82C270.086 107.727 269.461 107.828 268.945 108.031C268.445 108.234 268.039 108.516 267.727 108.875C267.43 109.219 267.211 109.609 267.07 110.047C266.945 110.484 266.883 110.945 266.883 111.43C266.883 111.898 266.992 112.32 267.211 112.695C267.445 113.055 267.758 113.336 268.148 113.539C268.539 113.742 268.977 113.844 269.461 113.844C270.336 113.844 271.078 113.68 271.688 113.352C272.312 113.008 272.789 112.594 273.117 112.109C273.445 111.625 273.609 111.172 273.609 110.75L275.344 113.984C275.031 114.609 274.672 115.242 274.266 115.883C273.875 116.523 273.383 117.117 272.789 117.664C272.211 118.195 271.5 118.633 270.656 118.977C269.812 119.305 268.789 119.469 267.586 119.469C266.023 119.469 264.586 119.148 263.273 118.508C261.977 117.867 260.938 116.977 260.156 115.836C259.375 114.68 258.984 113.352 258.984 111.852C258.984 110.539 259.219 109.367 259.688 108.336C260.172 107.305 260.898 106.43 261.867 105.711C262.836 104.992 264.07 104.445 265.57 104.07C267.07 103.695 268.836 103.508 270.867 103.508H274.266ZM296.344 113.375C297.078 113.375 297.703 113.242 298.219 112.977C298.75 112.695 299.148 112.305 299.414 111.805C299.695 111.289 299.828 110.672 299.812 109.953H307.242C307.258 111.859 306.789 113.531 305.836 114.969C304.898 116.391 303.617 117.5 301.992 118.297C300.383 119.078 298.562 119.469 296.531 119.469C294.547 119.469 292.812 119.148 291.328 118.508C289.844 117.852 288.602 116.945 287.602 115.789C286.617 114.617 285.875 113.25 285.375 111.688C284.891 110.125 284.648 108.43 284.648 106.602V106.062C284.648 104.234 284.891 102.539 285.375 100.977C285.875 99.3984 286.617 98.0312 287.602 96.875C288.602 95.7031 289.836 94.7969 291.305 94.1562C292.789 93.5 294.516 93.1719 296.484 93.1719C298.594 93.1719 300.453 93.5703 302.062 94.3672C303.688 95.1641 304.961 96.3203 305.883 97.8359C306.805 99.3516 307.258 101.188 307.242 103.344H299.812C299.828 102.578 299.711 101.891 299.461 101.281C299.211 100.672 298.82 100.188 298.289 99.8281C297.773 99.4531 297.109 99.2656 296.297 99.2656C295.484 99.2656 294.828 99.4453 294.328 99.8047C293.828 100.164 293.445 100.664 293.18 101.305C292.93 101.93 292.758 102.648 292.664 103.461C292.586 104.273 292.547 105.141 292.547 106.062V106.602C292.547 107.539 292.586 108.422 292.664 109.25C292.758 110.062 292.938 110.781 293.203 111.406C293.469 112.016 293.852 112.5 294.352 112.859C294.852 113.203 295.516 113.375 296.344 113.375ZM318.586 82.9766V119H310.688V82.9766H318.586ZM334.805 93.6406L323.789 106.555L318.023 112.32L314.578 107.305L319.383 101.047L325.336 93.6406H334.805ZM326.344 119L319.57 107.445L325.406 103.297L335.391 119H326.344ZM350.156 111.875C350.156 111.438 350.008 111.062 349.711 110.75C349.43 110.422 348.93 110.125 348.211 109.859C347.492 109.578 346.484 109.297 345.188 109.016C343.953 108.75 342.789 108.398 341.695 107.961C340.617 107.523 339.672 106.992 338.859 106.367C338.047 105.742 337.406 105 336.938 104.141C336.484 103.281 336.258 102.297 336.258 101.188C336.258 100.109 336.484 99.0938 336.938 98.1406C337.406 97.1719 338.086 96.3203 338.977 95.5859C339.883 94.8359 340.984 94.25 342.281 93.8281C343.578 93.3906 345.055 93.1719 346.711 93.1719C348.992 93.1719 350.961 93.5234 352.617 94.2266C354.273 94.9141 355.547 95.8828 356.438 97.1328C357.344 98.3672 357.797 99.7969 357.797 101.422H349.898C349.898 100.781 349.789 100.234 349.57 99.7812C349.367 99.3281 349.031 98.9844 348.562 98.75C348.094 98.5 347.469 98.375 346.688 98.375C346.141 98.375 345.641 98.4766 345.188 98.6797C344.75 98.8828 344.398 99.1641 344.133 99.5234C343.867 99.8828 343.734 100.305 343.734 100.789C343.734 101.133 343.812 101.445 343.969 101.727C344.141 101.992 344.398 102.242 344.742 102.477C345.086 102.695 345.523 102.898 346.055 103.086C346.586 103.258 347.227 103.414 347.977 103.555C349.68 103.867 351.273 104.312 352.758 104.891C354.242 105.469 355.445 106.289 356.367 107.352C357.305 108.414 357.773 109.844 357.773 111.641C357.773 112.766 357.516 113.805 357 114.758C356.484 115.695 355.742 116.523 354.773 117.242C353.805 117.945 352.641 118.492 351.281 118.883C349.922 119.273 348.391 119.469 346.688 119.469C344.266 119.469 342.219 119.039 340.547 118.18C338.875 117.305 337.609 116.211 336.75 114.898C335.906 113.57 335.484 112.227 335.484 110.867H342.844C342.875 111.648 343.062 112.289 343.406 112.789C343.766 113.289 344.242 113.656 344.836 113.891C345.43 114.125 346.117 114.242 346.898 114.242C347.617 114.242 348.211 114.141 348.68 113.938C349.164 113.734 349.531 113.461 349.781 113.117C350.031 112.758 350.156 112.344 350.156 111.875Z" fill="black"/>
<path d="M1134 0H1348C1356.28 0 1363 6.71573 1363 15V148C1363 156.284 1356.28 163 1348 163H1134V0Z" fill="#8962F3"/>
<path fill-rule="evenodd" clip-rule="evenodd" d="M1219.98 53C1219.85 53 1219.73 53.0527 1219.64 53.1464C1219.55 53.2402 1219.5 53.3674 1219.5 53.5V109.5C1219.5 109.633 1219.55 109.76 1219.64 109.854C1219.73 109.947 1219.85 110 1219.98 110H1277.02C1277.15 110 1277.27 109.947 1277.36 109.854C1277.45 109.76 1277.5 109.633 1277.5 109.5V64C1277.5 63.8674 1277.45 63.7402 1277.36 63.6464C1277.27 63.5527 1277.15 63.5 1277.02 63.5H1248.5C1247.65 63.5 1246.84 63.1045 1246.29 62.4206L1238.77 53H1219.98ZM1215.58 48.9038C1216.74 47.6848 1218.33 47 1219.98 47H1240.11C1240.97 47 1241.77 47.3955 1242.32 48.0794L1249.85 57.5H1277.02C1278.67 57.5 1280.26 58.1848 1281.42 59.4038C1282.59 60.6228 1283.25 62.2761 1283.25 64V109.5C1283.25 111.224 1282.59 112.877 1281.42 114.096C1280.26 115.315 1278.67 116 1277.02 116H1219.98C1218.33 116 1216.74 115.315 1215.58 114.096C1214.41 112.877 1213.75 111.224 1213.75 109.5V53.5C1213.75 51.7761 1214.41 50.1228 1215.58 48.9038Z" fill="white"/>
<path fill-rule="evenodd" clip-rule="evenodd" d="M1244.16 75.5251C1245.47 76.892 1245.47 79.108 1244.16 80.4749L1238.15 86.75L1244.16 93.0251C1245.47 94.392 1245.47 96.608 1244.16 97.9749C1242.85 99.3417 1240.73 99.3417 1239.42 97.9749L1231.03 89.2249C1229.72 87.858 1229.72 85.642 1231.03 84.2751L1239.42 75.5251C1240.73 74.1583 1242.85 74.1583 1244.16 75.5251Z" fill="white"/>
<path fill-rule="evenodd" clip-rule="evenodd" d="M1252.12 97.9749C1250.81 96.608 1250.81 94.392 1252.12 93.0251L1258.13 86.75L1252.12 80.4749C1250.81 79.108 1250.81 76.892 1252.12 75.5251C1253.43 74.1583 1255.55 74.1583 1256.86 75.5251L1265.25 84.2751C1266.56 85.642 1266.56 87.858 1265.25 89.2249L1256.86 97.9749C1255.55 99.3417 1253.43 99.3417 1252.12 97.9749Z" fill="white"/>
</svg>
